<?xml version="1.0" encoding="UTF-8" standalone="no"?>
<!-- Created with Inkscape (http://www.inkscape.org/) -->

<svg
   xmlns:dc="http://purl.org/dc/elements/1.1/"
   xmlns:cc="http://creativecommons.org/ns#"
   xmlns:rdf="http://www.w3.org/1999/02/22-rdf-syntax-ns#"
   xmlns:svg="http://www.w3.org/2000/svg"
   xmlns="http://www.w3.org/2000/svg"
   xmlns:xlink="http://www.w3.org/1999/xlink"
   xmlns:sodipodi="http://sodipodi.sourceforge.net/DTD/sodipodi-0.dtd"
   xmlns:inkscape="http://www.inkscape.org/namespaces/inkscape"
   width="472.95969"
   height="461.47601"
   viewBox="0 0 125.13725 122.09887"
   version="1.1"
   id="svg576"
   inkscape:version="0.92.4 (5da689c313, 2019-01-14)"
   sodipodi:docname="Biotrap-text-logo.svg">
  <defs
     id="defs570">
    <clipPath
       id="clipPath338-4"
       clipPathUnits="userSpaceOnUse">
      <path
         inkscape:connector-curvature="0"
         id="path336-7"
         d="M 0,0 H 841.89 V 595.276 H 0 Z" />
    </clipPath>
    <linearGradient
       inkscape:collect="always"
       xlink:href="#linearGradient368-6"
       id="linearGradient3182"
       gradientUnits="userSpaceOnUse"
       gradientTransform="matrix(0,38.035912,38.035912,0,597.74717,122.81304)"
       x1="0"
       y1="0"
       x2="1"
       y2="0"
       spreadMethod="pad" />
    <linearGradient
       id="linearGradient368-6"
       spreadMethod="pad"
       gradientTransform="matrix(0,38.035912,38.035912,0,499.33853,122.81304)"
       gradientUnits="userSpaceOnUse"
       y2="0"
       x2="1"
       y1="0"
       x1="0">
      <stop
         id="stop354-9"
         offset="0"
         style="stop-opacity:1;stop-color:#b0da19" />
      <stop
         id="stop356-3"
         offset="0.02717106"
         style="stop-opacity:1;stop-color:#b0da19" />
      <stop
         id="stop358-7"
         offset="0.186813"
         style="stop-opacity:1;stop-color:#6dc72e" />
      <stop
         id="stop360-4"
         offset="0.521973"
         style="stop-opacity:1;stop-color:#40b93c" />
      <stop
         id="stop362-5"
         offset="0.912094"
         style="stop-opacity:1;stop-color:#1d6434" />
      <stop
         id="stop364-2"
         offset="0.9185991"
         style="stop-opacity:1;stop-color:#1d6434" />
      <stop
         id="stop366-5"
         offset="1"
         style="stop-opacity:1;stop-color:#1d6434" />
    </linearGradient>
  </defs>
  <sodipodi:namedview
     id="base"
     pagecolor="#ffffff"
     bordercolor="#666666"
     borderopacity="1.0"
     inkscape:pageopacity="0.0"
     inkscape:pageshadow="2"
     inkscape:zoom="1.0206381"
     inkscape:cx="236.47984"
     inkscape:cy="230.738"
     inkscape:document-units="px"
     inkscape:current-layer="layer1"
     showgrid="false"
     units="px"
     showborder="false"
     fit-margin-top="0"
     fit-margin-left="0"
     fit-margin-right="0"
     fit-margin-bottom="0"
     inkscape:window-width="1366"
     inkscape:window-height="748"
     inkscape:window-x="0"
     inkscape:window-y="20"
     inkscape:window-maximized="1" />
  <metadata
     id="metadata573">
    <rdf:RDF>
      <cc:Work
         rdf:about="">
        <dc:format>image/svg+xml</dc:format>
        <dc:type
           rdf:resource="http://purl.org/dc/dcmitype/StillImage" />
        <dc:title></dc:title>
      </cc:Work>
    </rdf:RDF>
  </metadata>
  <g
     inkscape:label="Capa 1"
     inkscape:groupmode="layer"
     id="layer1"
     transform="translate(-3.6783849e-6,-115.73721)">
    <g
       id="g3276"
       transform="matrix(2.3155555,0,0,2.3155555,-1323.0831,-180.8393)">
      <g
         id="g3158"
         transform="matrix(0.35277776,0,0,-0.35277776,578.9645,165.86539)">
        <path
           d="m 0,0 c 6.216,4.686 13.389,9.301 20.956,12.122 1.386,0.538 1.946,1.047 1.946,-0.547 v -3.39 c 0,-0.391 0.03,-1.273 -1.049,-1.717 C 21.216,6.204 17.836,4.611 15.97,3.724 14.776,3.106 14.658,2.566 14.658,0.837 v -38.184 c 0,-0.787 -0.482,-1.37 -1.269,-1.706 -0.561,-0.256 -3.391,-2.174 -4.702,-2.952 -1.311,-0.777 -1.29,-0.109 -1.29,0.328 v 38.578 c 0,1 -0.239,1.579 -1.115,0.852 C 5.953,-2.519 5.458,-2.861 4.86,-3.274 4.256,-3.613 1.908,-5.571 0.18,-7.101 -0.384,-7.495 -1.192,-8.195 -1.192,-5.245 v 2.504 C -1.192,-1.048 -0.85,-0.708 0,0"
           style="fill:#1d6434;fill-opacity:1;fill-rule:nonzero;stroke:none"
           id="path3156"
           inkscape:connector-curvature="0" />
      </g>
      <g
         id="g3162"
         transform="matrix(0.35277776,0,0,-0.35277776,614.47074,171.26377)">
        <path
           d="m 0,0 c -1.428,0.76 -2.384,1.464 -3.836,2.158 v 15.337 c 1.452,-0.694 2.173,-1.539 3.6,-2.299 2.403,-1.277 3.672,-3.16 3.672,-6.599 V 3.076 c 0,-2.33 0.104,-4.607 -0.921,-4.607 M -11.634,25.122 V -18.72 c 0,-0.484 -0.057,-1.159 1.006,-1.575 1.764,-0.69 3.458,-1.767 5.03,-2.537 2.042,-1 1.762,0.788 1.762,1.706 v 14.589 c 0,1.726 -0.002,2.321 0.556,2.054 0.523,-0.251 2.405,-1.465 3.044,-1.979 1.917,-1.148 3.836,-1.752 5.52,-1.752 3.321,0 5.728,2.348 5.395,7.493 v 4.095 c 0.026,7.774 -4.249,15.022 -11.226,18.714 -3.059,1.753 -7.97,4.158 -8.92,4.57 -0.95,0.412 -2.167,0.937 -2.167,-1.536"
           style="fill:#1d6434;fill-opacity:1;fill-rule:nonzero;stroke:none"
           id="path3160"
           inkscape:connector-curvature="0" />
      </g>
      <g
         id="g3166"
         transform="matrix(0.35277776,0,0,-0.35277776,608.82629,177.19958)">
        <path
           d="m 0,0 c -2.509,15.59 -5.055,31.174 -7.635,46.752 -0.326,1.057 0.151,1.579 -2.105,2.047 -2.022,0.426 -6.414,1.188 -8.223,1.465 -1.784,0.273 -2.148,-0.007 -2.442,-1.424 -0.887,-5.535 -4.612,-24.914 -7.224,-39.122 -1.118,0.071 -2.111,-0.097 -3.172,0 -0.9,0.083 -1.53,0.053 -1.53,2.909 v 3.193 4.724 c 0,4.592 -5.463,5.202 -5.463,5.202 0,0 5.554,1.996 5.554,10.132 v 3.519 0.263 c 0.177,6.447 -2.716,11.118 -7.746,10.79 0,0 -6.998,-1.039 -15.169,-3.116 -0.795,-0.322 -1.961,-0.61 -1.961,-2.445 V 0.949 c 0,-1.225 0.509,-1.373 1.45,-1.094 1.774,0.537 3.459,1.134 4.965,1.531 1.504,0.397 1.698,0.544 1.639,2.209 0,1.053 0.044,0.912 0.044,1.965 v 12.811 c 0,1.123 -0.044,2.391 -0.044,2.96 0.468,0.096 2.566,0.626 3.194,0.744 0.915,0.096 5.336,0.819 5.336,-5.686 V 9.172 c 0,-4.381 3.171,-5.386 4.811,-5.293 4.604,0.261 5.795,0.35 13.187,-0.043 0.785,-0.042 1.706,-0.241 2.34,3.149 0.805,4.304 1.634,9.746 2.288,13.556 0.079,0.463 0.177,2.303 1.867,2.08 0.584,-0.088 1.247,-0.269 3.062,-0.546 1.816,-0.278 1.64,-1.166 1.974,-2.97 0.769,-4.17 2.533,-14.384 3.034,-16.713 0.306,-1.421 0.955,-1.327 1.356,-1.421 1.888,-0.446 3.882,-1.175 5.686,-1.859 C 0.342,-1.369 0.079,-0.451 0,0 m -40.532,35.187 c 0,-2.864 -1.191,-6.652 -3.718,-7.098 -0.889,-0.163 -4.4,-0.894 -4.812,-0.984 0,0.422 0.044,11.512 0.044,16.019 1.575,0.345 2.394,0.593 4.014,0.875 0.403,0.07 1.424,0.203 1.76,0.273 2.369,0.492 2.712,-1.966 2.712,-3.541 z m 28.102,-7.645 c -2.259,0.449 -3.439,0.636 -4.418,0.743 0.101,0.591 1.25,6.047 2.022,10.584 0.108,0.639 0.657,0.665 0.76,0.02 0.791,-4.933 1.525,-10.661 1.636,-11.347"
           style="fill:#1d6434;fill-opacity:1;fill-rule:nonzero;stroke:none"
           id="path3164"
           inkscape:connector-curvature="0" />
      </g>
      <g
         id="g3178"
         transform="matrix(0.35277776,0,0,-0.35277776,449.91007,267.83044)">
        <g
           id="g3176"
           clip-path="url(#clipPath338-4)">
          <g
             id="g3174"
             transform="translate(427.857,388.5498)">
            <path
               d="m 0,0 c 0,-4.195 -3.4,-7.595 -7.594,-7.595 -4.194,0 -7.594,3.4 -7.594,7.595 0,4.193 3.4,7.593 7.594,7.593 C -3.4,7.593 0,4.193 0,0"
               style="fill:#80cc28;fill-opacity:1;fill-rule:nonzero;stroke:none"
               id="path3172"
               inkscape:connector-curvature="0" />
          </g>
        </g>
      </g>
      <path
         inkscape:connector-curvature="0"
         id="path3180"
         style="fill:url(#linearGradient3182);stroke:none;stroke-width:0.35277775"
         d="m 603.96388,138.91028 v 15.41921 c 0,0.24412 0.0116,0.52705 0.0307,0.81774 v 0 c -0.98884,-0.17145 -1.99214,-0.30057 -3.0099,-0.3803 v 0 -20.41948 c 0,0 -2.57493,-0.29139 -5.49416,0 v 0 c 0,0.55069 0,15.39593 0,20.44806 v 0 c -1.02412,0.0921 -2.03553,0.22966 -3.03001,0.41416 v 0 c 0.0783,-0.41169 0.12664,-0.90699 0.12664,-1.51024 v 0 c 0.0212,-1.35326 0.0462,-2.68817 0.0462,-4.37057 v 0 c 0,-2.90018 -2.69628,-3.71757 -2.69628,-3.71757 v 0 c 0,0 2.69628,-1.1183 2.69628,-3.81882 v 0 c 0,-2.70016 0,-2.89313 0,-2.89313 v 0 c 0,-5.16925 -2.32763,-7.44502 -6.9469,-7.44502 v 0 c -2.56858,0 -5.7016,1.88277 -7.14269,2.88572 v 0 4.57024 c 0,0 0,17.51012 0,22.56225 v 0 c -2.79224,2.17629 -5.21476,4.79884 -7.15469,7.76182 v 0 c 2.30928,-2.86315 5.06518,-5.34988 8.15975,-7.3593 v 0 c 0.13441,-0.0847 0.26317,-0.17427 0.39899,-0.25753 v 0 c 0.061,-0.0385 0.12312,-0.0755 0.18486,-0.11359 v 0 c 3.61209,-2.17382 7.77063,-3.73945 11.15695,-4.46123 v 0 c 0.0353,-0.008 0.0741,-0.0208 0.1143,-0.0367 v 0 c 1.33491,-0.27375 2.70051,-0.46073 4.08658,-0.57679 v 0 c 0,0.008 0.0236,0.002 0.0236,0.007 v 0 c 1.73708,-0.18098 3.95076,-0.21943 5.47053,-0.0388 v 0 c 0,-0.006 0,-0.002 0,0.001 v 0 c 0,0.004 0,0.008 0,-0.004 v 0 c 2.37842,0.17463 4.68771,0.59443 6.9088,1.2245 v 0 c 0.14181,0.0409 0.28539,0.0794 0.4258,0.12241 v 0 c 0.22119,0.0656 0.43815,0.14005 0.65722,0.2099 v 0 c 1.58045,0.51612 3.11115,1.13877 4.64503,1.86479 v 0 c 4.59669,2.24719 8.62788,5.47264 11.80959,9.4174 v 0 c -2.42817,-3.70875 -5.61234,-6.88375 -9.33344,-9.31616 v 0 c 1.31974,-1.27176 2.15123,-3.163 2.15123,-5.5887 v 0 -15.41921 c 0,-4.74451 -2.52306,-7.45596 -7.14233,-7.45596 v 0 c -4.61928,0 -7.1427,2.71145 -7.1427,7.45596 m 7.83626,18.64148 c -0.79869,-0.3623 -1.61467,-0.69286 -2.44652,-0.99095 v 0 c -0.4258,-0.35278 -0.68509,-0.89429 -0.68509,-1.93464 v 0 -16.01293 c 0,-3.56729 4.87609,-4.26932 4.87609,0 v 0 16.01293 c 0,1.74237 -0.59937,2.92735 -1.67181,2.92735 v 0 c -0.024,0 -0.048,-3.5e-4 -0.0727,-0.002 M 583.218,136.5028 c 1.25448,-0.80574 2.48391,-1.04387 3.50732,-0.64453 v 0 c 0.88018,0.33267 1.39912,1.18146 1.39912,2.75379 v 0 2.10185 c 0,0.0127 -7.1e-4,0.0229 -7.1e-4,0.036 v 0 c 0,2.32869 -1.08373,2.9524 -2.58692,3.24591 v 0 l -0.88089,0.13935 c -0.43709,0.0575 -0.95567,0.10759 -1.43792,0.15063 v 0 z m 0.0307,12.68342 c 0.381,-0.0642 0.7673,-0.14147 1.14759,-0.21378 v 0 l 1.05798,-0.16757 c 1.48978,-0.16475 2.66947,0.14852 2.66947,2.52871 v 0 c 0,0.0109 7.1e-4,0.0201 7.1e-4,0.0314 v 0 2.42323 c 0,2.11808 -0.65264,2.03447 -2.4691,2.77742 v 0 c -2.39395,0.95427 -0.77152,0.34678 -2.40665,0.92569 v 0 z" />
    </g>
  </g>
</svg>
