<?xml version="1.0" encoding="UTF-8" standalone="no"?>
<!-- Generator: Adobe Illustrator 17.0.0, SVG Export Plug-In . SVG Version: 6.00 Build 0)  -->

<svg
   xmlns:dc="http://purl.org/dc/elements/1.1/"
   xmlns:cc="http://creativecommons.org/ns#"
   xmlns:rdf="http://www.w3.org/1999/02/22-rdf-syntax-ns#"
   xmlns:svg="http://www.w3.org/2000/svg"
   xmlns="http://www.w3.org/2000/svg"
   xmlns:sodipodi="http://sodipodi.sourceforge.net/DTD/sodipodi-0.dtd"
   xmlns:inkscape="http://www.inkscape.org/namespaces/inkscape"
   version="1.1"
   id="Ebene_1"
   x="0px"
   y="0px"
   width="745.2251"
   height="395.75949"
   viewBox="0 0 745.22511 395.75949"
   enable-background="new 0 0 265.12 136.06"
   xml:space="preserve"
   sodipodi:docname="ifs-logo.svg"
   inkscape:version="0.92.4 (5da689c313, 2019-01-14)"><metadata
   id="metadata87"><rdf:RDF><cc:Work
       rdf:about=""><dc:format>image/svg+xml</dc:format><dc:type
         rdf:resource="http://purl.org/dc/dcmitype/StillImage" /><dc:title></dc:title></cc:Work></rdf:RDF></metadata><defs
   id="defs85">
	
	

		
	
			
			
			
			
			
			
			
			
			
			
			
			
			
			
			
			
			
			
			
			
			
			
			
			
			
			
			
			
			
			
			
			
			
			
			
			
			
		</defs><sodipodi:namedview
   pagecolor="#ffffff"
   bordercolor="#666666"
   borderopacity="1"
   objecttolerance="10"
   gridtolerance="10"
   guidetolerance="10"
   inkscape:pageopacity="0"
   inkscape:pageshadow="2"
   inkscape:window-width="1366"
   inkscape:window-height="748"
   id="namedview83"
   showgrid="false"
   showguides="false"
   inkscape:guide-bbox="true"
   inkscape:snap-bbox="true"
   inkscape:bbox-nodes="true"
   inkscape:object-paths="true"
   inkscape:snap-intersection-paths="true"
   inkscape:snap-smooth-nodes="true"
   inkscape:snap-midpoints="true"
   inkscape:snap-bbox-edge-midpoints="true"
   inkscape:snap-bbox-midpoints="true"
   showborder="false"
   fit-margin-top="0"
   fit-margin-left="0"
   fit-margin-right="0"
   fit-margin-bottom="0"
   inkscape:zoom="0.57285078"
   inkscape:cx="464.52654"
   inkscape:cy="210.6759"
   inkscape:window-x="0"
   inkscape:window-y="20"
   inkscape:window-maximized="1"
   inkscape:current-layer="Ebene_1"><sodipodi:guide
     position="68.566314,141.38372"
     orientation="1,0"
     id="guide1010"
     inkscape:locked="false" /><sodipodi:guide
     position="77.543314,116.74602"
     orientation="1,0"
     id="guide1012"
     inkscape:locked="false" /><sodipodi:guide
     position="78.992314,132.70672"
     orientation="1,0"
     id="guide1014"
     inkscape:locked="false" /><sodipodi:guide
     position="88.02631,132.91372"
     orientation="1,0"
     id="guide1016"
     inkscape:locked="false" /><sodipodi:guide
     position="70.539314,103.78752"
     orientation="0,1"
     id="guide1018"
     inkscape:locked="false" /><sodipodi:guide
     position="89.4753,116.81325"
     orientation="1,0"
     id="guide1022"
     inkscape:locked="false" /><sodipodi:guide
     position="98.61032,108.30629"
     orientation="1,0"
     id="guide1024"
     inkscape:locked="false" /><sodipodi:guide
     position="100.05932,113.73693"
     orientation="1,0"
     id="guide1034"
     inkscape:locked="false" /></sodipodi:namedview>


<g
   id="g1113"
   transform="translate(-19.84455,-15.342325)"><path
     d="m 46.171032,21.99598 c 0,0 3.747546,-6.527624 11.275998,-6.542451 l 49.51876,-0.111203 c 0,0 7.52474,-0.01853 11.30565,6.494263 l 24.85019,42.83174 c 0,0 3.78461,6.501677 0.0297,13.033007 l -24.65744,42.939234 c 0,0 -3.75496,6.53133 -11.28341,6.54987 l -49.518753,0.1112 c 0,0 -7.528452,0.0185 -11.298238,-6.49797 L 21.532125,77.971931 c 0,0 -3.7772,-6.512797 -0.02965,-13.033007 z"
     id="path4"
     inkscape:connector-curvature="0"
     style="fill:#05305e;stroke-width:3.70677114" /><path
     d="m 377.42663,302.42804 h -44.78891 c -2.59104,0 -4.91889,-1.73106 -4.91889,-4.33321 V 94.708002 c 0,-2.316732 2.01648,-3.762372 4.91889,-4.047794 l 44.78891,-5.493435 c 3.14705,-0.292835 4.61123,2.023897 4.61123,4.329509 V 298.09483 c 0,2.59844 -2.0239,4.33321 -4.61123,4.33321 z"
     id="path6"
     inkscape:connector-curvature="0"
     style="fill:#05305e;stroke-width:3.70677114" /><path
     d="m 575.39416,127.63896 h -88.40279 v 58.64853 h 78.87638 c 2.59104,0 4.60752,1.73106 4.60752,4.32951 v 30.05079 c 0,2.59845 -2.01648,4.32951 -4.60752,4.32951 h -78.87638 v 72.80469 c 0,2.59845 -2.32785,4.62234 -5.19318,4.62234 h -43.92524 c -2.60957,0 -5.19319,-2.02389 -5.19319,-4.62234 V 93.544076 c 0,-2.598446 2.58362,-4.62605 5.19319,-4.62605 h 137.52121 c 2.61327,0 4.63717,1.742182 4.63717,4.344335 v 30.039669 c 0,2.60216 -2.0239,4.33693 -4.63717,4.33693 z"
     id="path8"
     inkscape:connector-curvature="0"
     style="fill:#05305e;stroke-width:3.70677114" /><path
     d="m 680.97782,305.60104 c -40.43346,0 -72.50073,-9.2484 -77.4122,-10.97205 -3.45842,-1.15651 -6.07169,-3.1767 -4.91148,-9.54122 l 4.0478,-22.53717 c 0.58567,-4.3258 4.32209,-5.77144 8.36989,-4.62235 6.66107,1.44935 35.85189,9.83407 60.98009,9.83407 21.65866,0 37.53847,-5.21543 37.53847,-24.55736 0,-21.09153 -19.33081,-22.53717 -43.88817,-26.58126 -29.19453,-4.62234 -69.34627,-13.87073 -69.34627,-63.84542 0,-52.29142 35.82223,-67.03325 84.06957,-67.03325 33.80575,0 63.28199,7.802753 69.91711,9.82665 3.76608,1.152806 7.22079,3.176703 6.3497,8.38472 l -4.32951,23.68626 c -0.56343,2.60216 -2.30561,5.48232 -7.52474,4.32951 -19.34194,-4.32951 -38.39103,-8.66643 -58.06287,-8.66643 -18.76738,0 -36.10765,3.46583 -36.10765,23.40455 0,20.22415 20.51697,21.95892 44.48496,25.71388 33.21637,5.20059 69.91711,12.13596 69.91711,67.02212 -0.0111,49.9821 -39.86261,66.15475 -84.09181,66.15475 z"
     id="path10"
     inkscape:connector-curvature="0"
     style="fill:#05305e;stroke-width:3.70677114" /><path
     d="m 155.43182,220.66038 c 0,0 3.74754,-6.52763 11.276,-6.54245 l 49.52246,-0.11121 c 0,0 7.52104,-0.0185 11.29824,6.49056 l 24.8576,42.83174 c 0,0 3.7772,6.50168 0.0297,13.03301 l -24.66115,42.93923 c 0,0 -3.75496,6.53133 -11.276,6.54987 l -49.52617,0.1112 c 0,0 -7.52845,0.0185 -11.29824,-6.50168 l -24.8576,-42.82432 c 0,0 -3.7772,-6.5128 -0.0297,-13.03301 z"
     id="path72"
     inkscape:connector-curvature="0"
     style="fill:#01a992;fill-opacity:1;stroke-width:3.70677114" /><path
     d="m 155.43182,91.016058 c 0,0 3.74754,-6.527624 11.276,-6.546158 l 49.52246,-0.111203 c 0,0 7.52104,-0.01853 11.29824,6.490556 l 24.8576,42.831737 c 0,0 3.7735,6.50539 0.0297,13.03301 l -24.66115,42.93924 c 0,0 -3.75496,6.53133 -11.276,6.54986 l -49.52617,0.1112 c 0,0 -7.52845,0.0185 -11.29824,-6.50167 l -24.8576,-42.82803 c 0,0 -3.78462,-6.5091 -0.0297,-13.03301 z"
     id="path74"
     inkscape:connector-curvature="0"
     style="fill:#01a992;fill-opacity:1;stroke-width:3.70677114" /><g
     transform="matrix(3.7067711,0,0,3.7067711,-1.8538939,-175.36941)"
     style="fill:#01a992;fill-opacity:1"
     id="g1040"><path
       d="m 97.587,146.1772 h -6.383 v 4.827 h 5.782 c 0.17,0 0.301,0.131 0.301,0.281 v 1.277 c 0,0.17 -0.131,0.301 -0.301,0.301 h -5.782 v 5.052 c 0,0.17 -0.15,0.301 -0.32,0.301 h -1.653 c -0.169,0 -0.32,-0.131 -0.32,-0.301 v -13.277 c 0,-0.169 0.15,-0.3 0.32,-0.3 h 8.356 c 0.169,0 0.301,0.131 0.301,0.3 v 1.239 c -0.001,0.169 -0.132,0.3 -0.301,0.3 z"
       id="path1008"
       inkscape:connector-curvature="0"
       style="fill:#01a992;fill-opacity:1" /><path
       d="m 103.919,158.2162 c -4.074,0 -4.582,-2.31 -4.582,-5.165 0,-2.873 0.508,-5.183 4.582,-5.183 4.076,0 4.563,2.31 4.563,5.183 0,2.855 -0.487,5.165 -4.563,5.165 z m 0,-8.808 c -2.29,0 -2.385,1.333 -2.385,3.643 0,2.291 0.094,3.624 2.385,3.624 2.273,0 2.367,-1.333 2.367,-3.624 0,-2.31 -0.094,-3.643 -2.367,-3.643 z"
       id="path1026"
       inkscape:connector-curvature="0"
       style="fill:#01a992;fill-opacity:1" /><path
       d="m 128.14101,157.8212 c -0.732,0.188 -1.689,0.395 -3.024,0.395 -3.661,0 -4.713,-1.427 -4.713,-5.146 0,-3.436 0.921,-5.202 4.245,-5.202 1.296,0 2.271,0.244 2.722,0.357 l -0.187,-1.109 v -2.629 c 0,-0.207 0.094,-0.301 0.281,-0.338 l 1.522,-0.3 c 0.225,-0.038 0.32,0.113 0.32,0.281 v 12.226 c -0.001,0.583 -0.039,1.165 -1.166,1.465 z m -0.957,-8.15 c -0.206,-0.057 -1.146,-0.263 -2.084,-0.263 -1.785,0 -2.518,0.47 -2.518,3.606 0,3.305 0.865,3.662 2.573,3.662 0.977,0 1.841,-0.206 2.028,-0.262 v -6.743 z"
       id="path1028"
       inkscape:connector-curvature="0"
       style="fill:#01a992;fill-opacity:1" /><path
       style="fill:#01a992;fill-opacity:1"
       inkscape:connector-curvature="0"
       id="path1032"
       d="m 114.40199,158.2162 c -4.074,0 -4.582,-2.31 -4.582,-5.165 0,-2.873 0.508,-5.183 4.582,-5.183 4.076,0 4.563,2.31 4.563,5.183 0,2.855 -0.487,5.165 -4.563,5.165 z m 0,-8.808 c -2.29,0 -2.385,1.333 -2.385,3.643 0,2.291 0.094,3.624 2.385,3.624 2.273,0 2.367,-1.333 2.367,-3.624 0,-2.31 -0.094,-3.643 -2.367,-3.643 z" /></g></g></svg>