<?xml version="1.0" encoding="UTF-8" standalone="no"?>
<!-- Created with Inkscape (http://www.inkscape.org/) -->

<svg
   xmlns:dc="http://purl.org/dc/elements/1.1/"
   xmlns:cc="http://creativecommons.org/ns#"
   xmlns:rdf="http://www.w3.org/1999/02/22-rdf-syntax-ns#"
   xmlns:svg="http://www.w3.org/2000/svg"
   xmlns="http://www.w3.org/2000/svg"
   xmlns:sodipodi="http://sodipodi.sourceforge.net/DTD/sodipodi-0.dtd"
   xmlns:inkscape="http://www.inkscape.org/namespaces/inkscape"
   version="1.1"
   id="svg2"
   xml:space="preserve"
   width="378.01465"
   height="460.11972"
   viewBox="0 0 378.01465 460.11972"
   sodipodi:docname="vegano.svg"
   inkscape:version="0.92.4 (5da689c313, 2019-01-14)"><metadata
     id="metadata8"><rdf:RDF><cc:Work
         rdf:about=""><dc:format>image/svg+xml</dc:format><dc:type
           rdf:resource="http://purl.org/dc/dcmitype/StillImage" /><dc:title></dc:title></cc:Work></rdf:RDF></metadata><defs
     id="defs6"><clipPath
       clipPathUnits="userSpaceOnUse"
       id="clipPath18"><path
         d="M 0,0 H 340.157 V 425.197 H 0 Z"
         id="path16"
         inkscape:connector-curvature="0" /></clipPath></defs><sodipodi:namedview
     pagecolor="#ffffff"
     bordercolor="#666666"
     borderopacity="1"
     objecttolerance="10"
     gridtolerance="10"
     guidetolerance="10"
     inkscape:pageopacity="0"
     inkscape:pageshadow="2"
     inkscape:window-width="1366"
     inkscape:window-height="748"
     id="namedview4"
     showgrid="false"
     showborder="false"
     fit-margin-top="0"
     fit-margin-left="0"
     fit-margin-right="0"
     fit-margin-bottom="0"
     inkscape:zoom="0.70710678"
     inkscape:cx="215.08055"
     inkscape:cy="239.27096"
     inkscape:window-x="0"
     inkscape:window-y="20"
     inkscape:window-maximized="1"
     inkscape:current-layer="g10" /><g
     id="g10"
     inkscape:groupmode="layer"
     inkscape:label="vegano"
     transform="matrix(1.3333333,0,0,-1.3333333,-42.419999,515.96639)"><g
       id="g946"><path
         d="m 173.5771,103.4958 c 78.079,0 141.739,63.697 141.739,141.739 0,78.079 -63.66,141.74 -141.739,141.74 -78.042,0 -141.739,-63.661 -141.739,-141.74 0,-78.042 63.697,-141.739 141.739,-141.739"
         style="fill:#fff200;fill-opacity:1;fill-rule:evenodd;stroke:none"
         id="path22"
         inkscape:connector-curvature="0" /><g
         transform="translate(171.8506,140.7156)"
         id="g24"><path
           inkscape:connector-curvature="0"
           id="path26"
           style="fill:#008940;fill-opacity:1;fill-rule:evenodd;stroke:none"
           d="m 0,0 c 0,0 1.043,5.823 1.416,8.423 2.413,15.098 3.901,30.473 7.742,45.264 4.557,16.933 9.427,34.96 17.393,50.701 1.464,2.409 3.807,7.05 7.282,6.86 9.105,0.703 18.298,3.666 25.771,9.149 5.576,4.113 9.969,8.749 13.082,14.993 2.397,6.315 3.418,12.523 3.383,19.298 0.104,6.108 1.053,11.604 3.422,17.25 0.517,1.556 1.117,3.072 1.004,4.743 -3.476,0.357 -7.941,-2.606 -11.141,-3.791 -7.57,-2.517 -15.873,-3.623 -23.666,-5.14 -6.338,-1.072 -12.122,-2.888 -17.367,-6.744 -8.592,-6.089 -12.893,-13.609 -16.107,-23.577 -1.365,-5.628 -2.508,-12.131 -2.113,-17.896 l 0.303,-0.664 c 1.455,0.485 3.971,4.921 4.784,6.232 5.131,7.953 10.193,15.151 17.954,21.016 1.283,0.776 8.616,4.793 9.527,2.802 -0.12,-2.596 -4.323,-6.224 -6.003,-8.303 C 21.544,122.786 12.678,98.875 4.774,77.198 0.426,65.202 -2.28,52.482 -7.39,40.851 c -0.243,-0.424 -0.604,-1.267 -1.061,-1.484 -1.403,1.399 -2.216,4.773 -2.792,6.644 -2.32,8.24 -4.35,16.779 -6.711,25.018 -5.775,21.774 -12.619,47.25 -25.909,65.839 -10.189,13.457 -23.881,28.735 -40.253,34.597 -0.209,-0.004 -0.627,-0.011 -0.836,-0.015 -0.605,-1.307 0.834,-2.285 1.644,-3.191 19.674,-20.109 35.503,-47.562 44.039,-74.18 8.853,-27.91 17.194,-57.71 22.132,-86.606 0.417,-2.337 0.941,-5.183 1.524,-7.473 0,0 5.304,-0.331 7.78,-0.331 C -5.359,-0.331 0,0 0,0" /></g><g
         transform="translate(61.7139,208.7742)"
         id="g28"><path
           inkscape:connector-curvature="0"
           id="path30"
           style="fill:#008940;fill-opacity:1;fill-rule:evenodd;stroke:none"
           d="m 0,0 -2.987,-1.206 0.135,-0.335 c 0.109,0.045 0.215,0.021 0.319,-0.067 0.103,-0.091 0.204,-0.256 0.302,-0.496 l 3.984,-9.863 -3.908,-1.579 -2.543,6.295 c -0.092,0.24 -0.123,0.43 -0.095,0.564 0.028,0.135 0.081,0.218 0.159,0.249 l -0.135,0.334 -3.035,-1.227 0.136,-0.334 c 0.108,0.046 0.212,0.026 0.314,-0.057 0.1,-0.083 0.199,-0.244 0.296,-0.482 l 2.543,-6.295 -3.715,-1.501 -3.916,9.693 c -0.099,0.252 -0.129,0.45 -0.092,0.59 0.037,0.144 0.118,0.238 0.243,0.284 l -0.135,0.335 -3.083,-1.246 0.135,-0.334 c 0.085,0.037 0.176,0.013 0.272,-0.075 0.097,-0.089 0.198,-0.257 0.3,-0.507 l 5.278,-13.065 0.335,0.135 c -0.074,0.174 -0.079,0.309 -0.015,0.404 0.063,0.094 0.203,0.182 0.419,0.264 l 12.876,5.203 c 0.212,0.09 0.374,0.124 0.485,0.099 0.11,-0.022 0.2,-0.124 0.269,-0.301 l 0.335,0.135 -5.348,13.236 c -0.099,0.239 -0.149,0.423 -0.151,0.554 -0.002,0.132 0.05,0.22 0.158,0.262 z" /></g><g
         transform="translate(44.646,209.6072)"
         id="g32"><path
           inkscape:connector-curvature="0"
           id="path34"
           style="fill:#008940;fill-opacity:1;fill-rule:evenodd;stroke:none"
           d="M 0,0 0.353,0.074 C 0.299,0.321 0.313,0.492 0.394,0.589 0.475,0.685 0.623,0.752 0.839,0.79 l 9.209,1.958 c 2.118,0.481 3.438,1.51 3.961,3.085 0.522,1.578 0.508,3.573 -0.044,5.984 -0.478,2.431 -1.276,4.259 -2.395,5.487 -1.118,1.227 -2.743,1.63 -4.874,1.208 l -9.208,-1.957 c -0.214,-0.052 -0.377,-0.05 -0.49,0.006 -0.112,0.053 -0.19,0.186 -0.234,0.397 l -0.353,-0.074 0.881,-4.143 0.353,0.074 c -0.044,0.201 -0.026,0.346 0.056,0.438 0.081,0.094 0.231,0.161 0.445,0.202 l 9.311,1.98 c 1.115,0.236 1.983,0.006 2.603,-0.691 0.62,-0.698 1.091,-1.849 1.416,-3.455 C 11.833,9.69 11.87,8.447 11.588,7.558 11.306,6.667 10.606,6.104 9.49,5.869 L 0.181,3.89 C -0.034,3.841 -0.196,3.839 -0.308,3.886 -0.419,3.932 -0.492,4.042 -0.527,4.218 L -0.881,4.143 Z" /></g><g
         transform="translate(49.291,243.4265)"
         id="g36"><path
           inkscape:connector-curvature="0"
           id="path38"
           style="fill:#008940;fill-opacity:1;fill-rule:evenodd;stroke:none"
           d="M 0,0 4.782,3.31 C 5.007,3.469 5.231,3.63 5.456,3.793 5.682,3.955 5.868,4.044 6.018,4.06 6.081,4.057 6.124,4.032 6.146,3.987 6.168,3.941 6.178,3.897 6.178,3.854 L 6.538,3.86 6.455,8.588 6.095,8.582 C 6.095,8.386 6.04,8.206 5.932,8.04 5.823,7.875 5.685,7.731 5.514,7.61 L -0.062,3.563 C -0.233,4.893 -0.722,5.948 -1.526,6.73 -2.331,7.513 -3.342,7.903 -4.556,7.902 -6.327,7.856 -7.57,7.183 -8.285,5.881 -9,4.58 -9.324,2.739 -9.26,0.358 l 0.155,-8.837 0.36,0.007 c -0.007,0.227 0.036,0.377 0.129,0.451 0.093,0.073 0.255,0.108 0.486,0.106 l 13.884,0.242 c 0.231,0.011 0.394,-0.019 0.49,-0.089 0.095,-0.069 0.144,-0.218 0.144,-0.446 L 6.749,-8.202 6.676,-4.02 6.315,-4.025 C 6.321,-4.216 6.278,-4.343 6.186,-4.408 6.092,-4.474 5.93,-4.505 5.699,-4.505 L 0.081,-4.603 Z m -6.626,-4.72 -0.105,6.033 c -0.02,1.097 0.135,1.936 0.466,2.519 0.331,0.582 0.841,0.881 1.53,0.897 0.69,0.036 1.217,-0.15 1.581,-0.557 0.363,-0.406 0.555,-1.171 0.577,-2.292 l 0.113,-6.527 z" /></g><g
         transform="translate(44.1191,267.0437)"
         id="g40"><path
           inkscape:connector-curvature="0"
           id="path42"
           style="fill:#008940;fill-opacity:1;fill-rule:evenodd;stroke:none"
           d="M 0,0 C 0.343,2.005 1.112,3.531 2.308,4.578 3.504,5.625 4.944,6.031 6.632,5.795 8.309,5.498 9.554,4.667 10.367,3.301 11.181,1.936 11.441,0.247 11.148,-1.766 10.805,-3.771 10.035,-5.297 8.84,-6.344 7.645,-7.391 6.203,-7.797 4.517,-7.562 2.839,-7.264 1.594,-6.433 0.78,-5.067 -0.033,-3.702 -0.293,-2.013 0,0 m -2.514,0.398 c -0.286,-1.909 -0.189,-3.641 0.29,-5.198 0.481,-1.556 1.263,-2.838 2.348,-3.844 1.085,-1.005 2.392,-1.636 3.921,-1.893 1.533,-0.229 2.972,-0.032 4.314,0.59 1.342,0.621 2.483,1.597 3.42,2.929 0.938,1.332 1.565,2.951 1.882,4.854 0.286,1.909 0.19,3.642 -0.29,5.198 C 12.892,4.591 12.108,5.872 11.023,6.877 9.938,7.883 8.632,8.515 7.103,8.771 5.569,9 4.132,8.803 2.789,8.182 1.446,7.561 0.307,6.584 -0.631,5.252 -1.568,3.92 -2.196,2.302 -2.514,0.398" /></g><g
         transform="translate(49.1572,286.3947)"
         id="g44"><path
           inkscape:connector-curvature="0"
           id="path46"
           style="fill:#008940;fill-opacity:1;fill-rule:evenodd;stroke:none"
           d="M 0,0 1.973,5.73 C 2.285,6.678 2.647,7.289 3.062,7.563 3.475,7.836 4.048,7.838 4.78,7.569 5.523,7.331 5.974,6.976 6.131,6.506 6.288,6.036 6.198,5.331 5.86,4.392 L 3.888,-1.339 Z M 8.479,4.178 C 9.062,5.949 9.089,7.349 8.562,8.379 8.033,9.408 7.134,10.131 5.861,10.548 4.342,11.063 3.075,11.008 2.064,10.382 1.054,9.756 0.269,8.621 -0.289,6.977 l -3.318,-9.637 0.341,-0.117 c 0.067,0.205 0.157,0.324 0.268,0.358 0.111,0.034 0.275,0.011 0.491,-0.069 L 10.624,-7.01 c 0.22,-0.069 0.363,-0.152 0.431,-0.247 0.066,-0.097 0.063,-0.245 -0.01,-0.447 l 0.341,-0.118 1.362,3.955 -0.342,0.118 c -0.062,-0.193 -0.149,-0.305 -0.26,-0.337 -0.111,-0.032 -0.274,-0.008 -0.491,0.072 l -5.362,1.847 z" /></g><g
         transform="translate(75.396,310.114)"
         id="g48"><path
           inkscape:connector-curvature="0"
           id="path50"
           style="fill:#008940;fill-opacity:1;fill-rule:evenodd;stroke:none"
           d="M 0,0 -2.817,1.562 -2.992,1.246 C -2.889,1.19 -2.839,1.094 -2.845,0.956 -2.849,0.818 -2.914,0.637 -3.039,0.41 l -5.157,-9.304 -3.687,2.044 3.291,5.938 c 0.13,0.223 0.257,0.366 0.38,0.429 0.123,0.063 0.221,0.074 0.292,0.031 l 0.175,0.316 -2.862,1.587 -0.175,-0.316 c 0.103,-0.055 0.155,-0.148 0.153,-0.279 -0.001,-0.13 -0.063,-0.309 -0.188,-0.535 l -3.291,-5.937 -3.505,1.943 5.068,9.144 c 0.134,0.235 0.269,0.383 0.401,0.443 0.134,0.06 0.259,0.057 0.374,-0.011 l 0.175,0.316 -2.908,1.612 -0.175,-0.316 c 0.083,-0.042 0.12,-0.129 0.113,-0.259 -0.007,-0.131 -0.076,-0.315 -0.206,-0.552 l -6.831,-12.324 0.316,-0.175 c 0.089,0.168 0.19,0.256 0.304,0.266 0.113,0.008 0.269,-0.043 0.468,-0.159 l 12.146,-6.733 c 0.205,-0.107 0.333,-0.212 0.385,-0.313 0.05,-0.101 0.029,-0.234 -0.066,-0.399 l 0.316,-0.175 6.92,12.485 c 0.124,0.227 0.236,0.383 0.336,0.467 0.101,0.084 0.202,0.098 0.302,0.041 z" /></g><g
         transform="translate(78.5752,325.5598)"
         id="g52"><path
           inkscape:connector-curvature="0"
           id="path54"
           style="fill:#008940;fill-opacity:1;fill-rule:evenodd;stroke:none"
           d="m 0,0 -3.271,-4.04 -2.83,5.602 z m 0.646,-10.022 -0.281,0.227 c -0.09,-0.112 -0.18,-0.18 -0.272,-0.202 -0.092,-0.022 -0.189,0.007 -0.289,0.088 -0.038,0.022 -0.098,0.109 -0.181,0.262 -0.082,0.151 -0.246,0.463 -0.489,0.935 -0.244,0.472 -0.627,1.199 -1.148,2.182 l 4.711,5.818 C 3.818,-1.005 4.64,-1.217 5.162,-1.347 5.685,-1.477 6.029,-1.567 6.195,-1.617 6.362,-1.668 6.473,-1.72 6.526,-1.772 6.596,-1.83 6.629,-1.896 6.623,-1.968 6.618,-2.041 6.582,-2.118 6.516,-2.199 l 0.28,-0.227 2.667,3.293 -0.28,0.227 C 9.11,1.005 8.991,0.961 8.826,0.964 8.661,0.967 8.441,1.006 8.167,1.08 L -6.269,4.741 c -0.124,0.03 -0.235,0.054 -0.335,0.072 -0.1,0.018 -0.185,0.053 -0.256,0.107 -0.06,0.052 -0.088,0.117 -0.085,0.194 0.003,0.077 0.029,0.148 0.079,0.212 l -0.28,0.227 -2.864,-3.535 0.281,-0.227 c 0.054,0.059 0.12,0.092 0.198,0.099 0.078,0.006 0.139,-0.007 0.184,-0.041 0.079,-0.067 0.143,-0.145 0.191,-0.234 0.049,-0.089 0.095,-0.178 0.139,-0.267 l 6.468,-12.797 c 0.198,-0.359 0.347,-0.644 0.445,-0.858 0.097,-0.214 0.075,-0.42 -0.067,-0.619 l 0.28,-0.227 z" /></g><g
         transform="translate(85.439,340.1579)"
         id="g56"><path
           inkscape:connector-curvature="0"
           id="path58"
           style="fill:#008940;fill-opacity:1;fill-rule:evenodd;stroke:none"
           d="m 0,0 14.374,-1.756 c 0.196,-0.024 0.366,-0.048 0.511,-0.072 0.145,-0.025 0.24,-0.061 0.286,-0.109 0.05,-0.061 0.067,-0.128 0.052,-0.203 -0.016,-0.073 -0.064,-0.145 -0.144,-0.213 l 0.233,-0.276 3.004,2.521 -0.232,0.276 C 17.959,0.059 17.841,0.02 17.73,0.05 17.619,0.08 17.491,0.184 17.345,0.362 L 8.418,11 c -0.15,0.175 -0.23,0.32 -0.241,0.435 -0.011,0.114 0.049,0.223 0.178,0.328 L 8.123,12.039 5.357,9.718 5.589,9.441 C 5.705,9.543 5.817,9.578 5.926,9.546 6.035,9.514 6.163,9.409 6.31,9.231 l 6.502,-7.75 -13.575,1.612 c -0.155,0.016 -0.289,0.027 -0.4,0.033 -0.112,0.005 -0.202,0.045 -0.27,0.118 -0.056,0.069 -0.078,0.132 -0.064,0.188 0.014,0.056 0.052,0.109 0.113,0.159 l -0.231,0.276 -3.384,-2.84 0.231,-0.276 c 0.117,0.102 0.229,0.137 0.337,0.104 0.11,-0.031 0.237,-0.136 0.383,-0.314 l 8.927,-10.638 c 0.15,-0.175 0.231,-0.32 0.244,-0.432 0.013,-0.113 -0.042,-0.217 -0.161,-0.314 l 0.231,-0.276 2.706,2.271 -0.231,0.276 C 7.571,-8.657 7.471,-8.683 7.366,-8.647 7.262,-8.612 7.136,-8.505 6.987,-8.328 Z" /></g><g
         transform="translate(121.3989,368.1408)"
         id="g60"><path
           inkscape:connector-curvature="0"
           id="path62"
           style="fill:#008940;fill-opacity:1;fill-rule:evenodd;stroke:none"
           d="m 0,0 0.152,-0.327 c 0.098,0.046 0.194,0.068 0.286,0.065 0.092,-0.003 0.16,-0.045 0.202,-0.125 0.041,-0.134 0.069,-0.582 0.085,-1.344 0.015,-0.763 0.034,-1.603 0.053,-2.522 l 0.224,-8.475 -6.443,5.575 c -0.955,0.811 -1.678,1.419 -2.17,1.824 -0.493,0.407 -0.759,0.647 -0.796,0.724 -0.036,0.083 -0.029,0.159 0.024,0.23 0.053,0.071 0.134,0.131 0.242,0.181 l -0.152,0.327 -4.053,-1.889 0.153,-0.327 c 0.255,0.104 0.466,0.102 0.634,-0.006 0.167,-0.109 0.318,-0.225 0.45,-0.35 l 11.288,-9.629 c 0.096,-0.077 0.193,-0.16 0.288,-0.249 0.096,-0.089 0.154,-0.154 0.177,-0.194 0.032,-0.06 0.038,-0.122 0.019,-0.188 -0.018,-0.066 -0.091,-0.129 -0.216,-0.191 l 0.153,-0.326 3.863,1.801 -0.152,0.327 c -0.134,-0.049 -0.241,-0.069 -0.32,-0.059 -0.079,0.009 -0.135,0.049 -0.167,0.119 -0.036,0.079 -0.056,0.164 -0.061,0.255 -0.005,0.09 -0.011,0.204 -0.016,0.34 L 3.356,0.306 C 3.346,0.55 3.375,0.769 3.445,0.961 3.516,1.154 3.628,1.288 3.78,1.365 L 3.628,1.692 Z" /></g><g
         transform="translate(150.0669,360.3308)"
         id="g64"><path
           inkscape:connector-curvature="0"
           id="path66"
           style="fill:#008940;fill-opacity:1;fill-rule:evenodd;stroke:none"
           d="M 0,0 -0.834,3.111 -1.182,3.018 C -1.15,2.904 -1.186,2.802 -1.288,2.71 -1.391,2.618 -1.566,2.538 -1.816,2.471 l -10.275,-2.753 -1.091,4.071 6.558,1.757 c 0.25,0.061 0.441,0.07 0.572,0.025 0.131,-0.044 0.206,-0.107 0.226,-0.188 L -5.479,5.476 -6.325,8.638 -6.674,8.544 C -6.642,8.432 -6.672,8.33 -6.768,8.24 -6.862,8.15 -7.034,8.071 -7.283,8.004 l -6.558,-1.757 -1.037,3.871 10.099,2.706 c 0.262,0.067 0.461,0.072 0.597,0.019 0.137,-0.055 0.221,-0.147 0.252,-0.276 l 0.349,0.093 -0.86,3.212 -0.349,-0.094 c 0.026,-0.089 -0.01,-0.175 -0.108,-0.261 -0.099,-0.085 -0.279,-0.163 -0.54,-0.235 l -13.611,-3.647 0.093,-0.349 c 0.183,0.052 0.317,0.041 0.403,-0.033 0.085,-0.075 0.156,-0.225 0.211,-0.448 l 3.594,-13.414 c 0.064,-0.222 0.078,-0.387 0.042,-0.494 -0.037,-0.108 -0.148,-0.184 -0.332,-0.23 l 0.093,-0.349 13.788,3.695 c 0.249,0.068 0.439,0.095 0.57,0.082 0.13,-0.014 0.21,-0.077 0.238,-0.189 z" /></g><g
         transform="translate(167.2051,365.9377)"
         id="g68"><path
           inkscape:connector-curvature="0"
           id="path70"
           style="fill:#008940;fill-opacity:1;fill-rule:evenodd;stroke:none"
           d="m 0,0 c -0.302,-0.25 -0.872,-0.518 -1.713,-0.803 -0.84,-0.284 -1.744,-0.477 -2.711,-0.576 -1.982,-0.174 -3.639,0.152 -4.972,0.978 -1.333,0.826 -2.102,2.175 -2.306,4.049 -0.089,1.205 0.126,2.251 0.644,3.138 0.518,0.887 1.243,1.591 2.173,2.112 0.931,0.52 1.97,0.832 3.117,0.935 1.112,0.08 2.076,0.025 2.894,-0.165 C -2.057,9.479 -1.422,9.256 -0.97,9 -0.518,8.744 -0.283,8.556 -0.269,8.435 -0.262,8.346 -0.261,8.278 -0.267,8.23 -0.273,8.182 -0.282,8.145 -0.293,8.12 L 0.03,7.965 1.592,11.596 1.189,11.717 C 1.093,11.626 0.993,11.574 0.89,11.561 c -0.096,0 -0.32,0.055 -0.67,0.166 -0.351,0.111 -0.795,0.232 -1.333,0.363 -0.56,0.141 -1.234,0.244 -2.023,0.313 -0.789,0.068 -1.688,0.06 -2.699,-0.021 -1.798,-0.161 -3.39,-0.618 -4.773,-1.371 -1.384,-0.754 -2.447,-1.773 -3.187,-3.059 -0.74,-1.286 -1.043,-2.808 -0.908,-4.567 0.179,-1.852 0.727,-3.346 1.646,-4.481 0.918,-1.134 2.106,-1.934 3.563,-2.398 1.458,-0.464 3.084,-0.616 4.881,-0.457 1.606,0.146 3.098,0.494 4.474,1.043 1.376,0.55 2.549,1.261 3.518,2.133 L 3.348,-0.413 C 3.24,-0.374 3.162,-0.32 3.111,-0.253 3.061,-0.187 3.03,-0.083 3.02,0.055 L 2.641,4.381 c -0.019,0.202 -0.01,0.344 0.027,0.43 0.037,0.085 0.105,0.148 0.205,0.19 L 2.842,5.363 -4.28,4.74 C -4.49,4.725 -4.658,4.75 -4.783,4.814 -4.908,4.878 -4.977,4.963 -4.988,5.07 l -0.36,-0.031 0.297,-3.391 0.36,0.031 c -0.008,0.111 0.044,0.22 0.154,0.327 0.109,0.108 0.269,0.174 0.478,0.199 l 3.836,0.336 z" /></g><g
         transform="translate(190.6611,361.4045)"
         id="g72"><path
           inkscape:connector-curvature="0"
           id="path74"
           style="fill:#008940;fill-opacity:1;fill-rule:evenodd;stroke:none"
           d="M 0,0 0.28,3.208 -0.079,3.24 C -0.088,3.123 -0.156,3.039 -0.284,2.987 -0.411,2.936 -0.604,2.921 -0.862,2.943 l -10.597,0.928 0.368,4.198 6.763,-0.591 C -4.071,7.45 -3.89,7.393 -3.782,7.306 -3.674,7.219 -3.625,7.134 -3.634,7.051 l 0.36,-0.031 0.285,3.261 -0.361,0.031 c -0.007,-0.117 -0.071,-0.202 -0.191,-0.254 -0.12,-0.052 -0.31,-0.067 -0.565,-0.045 l -6.763,0.591 0.348,3.992 10.417,-0.911 C 0.164,13.658 0.354,13.596 0.463,13.499 0.572,13.401 0.62,13.286 0.604,13.153 l 0.361,-0.031 0.29,3.312 -0.359,0.031 C 0.89,16.373 0.826,16.303 0.704,16.257 0.582,16.21 0.387,16.198 0.117,16.22 l -14.038,1.229 -0.031,-0.36 c 0.189,-0.013 0.31,-0.069 0.366,-0.169 0.055,-0.099 0.069,-0.264 0.045,-0.493 l -1.21,-13.835 c -0.017,-0.23 -0.06,-0.389 -0.13,-0.477 -0.071,-0.089 -0.202,-0.123 -0.39,-0.103 l -0.033,-0.36 14.22,-1.244 c 0.259,-0.021 0.446,-0.06 0.563,-0.118 0.12,-0.058 0.171,-0.144 0.162,-0.258 z" /></g><g
         transform="translate(203.8672,359.1355)"
         id="g76"><path
           inkscape:connector-curvature="0"
           id="path78"
           style="fill:#008940;fill-opacity:1;fill-rule:evenodd;stroke:none"
           d="m 0,0 c -0.21,0.049 -0.341,0.128 -0.394,0.238 -0.049,0.111 -0.045,0.277 0.015,0.499 L 2.604,12.698 7.602,11.452 C 7.853,11.393 8.027,11.329 8.13,11.26 8.23,11.191 8.266,11.096 8.231,10.973 L 8.582,10.886 9.35,13.96 8.999,14.048 C 8.974,13.936 8.898,13.87 8.775,13.854 8.652,13.834 8.467,13.857 8.217,13.921 L -4.854,17.18 c -0.25,0.061 -0.425,0.128 -0.525,0.202 -0.1,0.073 -0.137,0.166 -0.105,0.277 l -0.35,0.087 -0.769,-3.074 0.352,-0.088 c 0.027,0.124 0.104,0.192 0.226,0.206 0.121,0.013 0.306,-0.014 0.556,-0.079 L -0.471,13.465 -3.453,1.504 C -3.503,1.279 -3.573,1.129 -3.662,1.054 -3.752,0.979 -3.901,0.969 -4.109,1.024 l -0.087,-0.35 4.109,-1.025 z" /></g><g
         transform="translate(223.8516,359.0905)"
         id="g80"><path
           inkscape:connector-curvature="0"
           id="path82"
           style="fill:#008940;fill-opacity:1;fill-rule:evenodd;stroke:none"
           d="M 0,0 -4.819,1.948 -0.29,6.29 Z m -9.396,-3.547 0.136,0.334 c -0.134,0.053 -0.223,0.12 -0.272,0.202 -0.048,0.081 -0.048,0.182 0,0.302 0.01,0.042 0.075,0.125 0.196,0.249 0.121,0.123 0.371,0.37 0.751,0.742 0.381,0.371 0.965,0.949 1.751,1.735 L 0.107,-2.788 C 0.155,-3.945 0.193,-4.793 0.223,-5.33 0.25,-5.868 0.265,-6.224 0.266,-6.397 0.267,-6.572 0.248,-6.692 0.214,-6.76 0.179,-6.843 0.125,-6.893 0.056,-6.909 -0.017,-6.926 -0.101,-6.914 -0.196,-6.874 l -0.137,-0.334 3.93,-1.588 0.134,0.335 C 3.625,-8.418 3.55,-8.317 3.504,-8.159 3.457,-8 3.431,-7.778 3.422,-7.494 L 2.701,7.381 C 2.693,7.508 2.685,7.622 2.673,7.723 2.66,7.823 2.67,7.915 2.699,7.999 2.731,8.071 2.785,8.117 2.86,8.137 2.936,8.157 3.011,8.152 3.087,8.123 L 3.222,8.458 -0.996,10.162 -1.132,9.827 C -1.06,9.793 -1.009,9.74 -0.979,9.667 -0.949,9.595 -0.944,9.532 -0.965,9.479 -1.006,9.384 -1.062,9.3 -1.133,9.228 -1.202,9.155 -1.274,9.085 -1.348,9.017 L -11.693,-0.91 c -0.286,-0.295 -0.516,-0.52 -0.692,-0.675 -0.175,-0.156 -0.379,-0.195 -0.61,-0.118 l -0.136,-0.335 z" /></g><g
         transform="translate(241.1611,349.4387)"
         id="g84"><path
           inkscape:connector-curvature="0"
           id="path86"
           style="fill:#008940;fill-opacity:1;fill-rule:evenodd;stroke:none"
           d="M 0,0 0.069,-5.814 C 0.076,-6.09 0.084,-6.366 0.093,-6.644 0.102,-6.921 0.071,-7.126 0,-7.258 -0.038,-7.31 -0.082,-7.331 -0.132,-7.324 c -0.051,0.008 -0.094,0.023 -0.128,0.048 l -0.196,-0.302 3.966,-2.576 0.197,0.302 c -0.163,0.111 -0.282,0.256 -0.358,0.439 -0.078,0.182 -0.12,0.378 -0.122,0.587 L 2.988,-1.94 c 1.199,-0.602 2.347,-0.788 3.446,-0.558 1.098,0.23 1.986,0.849 2.665,1.856 0.952,1.495 1.089,2.902 0.41,4.222 C 8.829,4.9 7.485,6.199 5.476,7.477 l -7.414,4.814 -0.196,-0.303 c 0.193,-0.121 0.293,-0.241 0.302,-0.359 0.009,-0.118 -0.053,-0.272 -0.185,-0.462 L -9.579,-0.479 c -0.12,-0.197 -0.236,-0.316 -0.348,-0.356 -0.111,-0.04 -0.261,0.003 -0.45,0.13 l -0.196,-0.303 3.508,-2.278 0.196,0.303 c -0.161,0.1 -0.242,0.208 -0.244,0.321 -0.002,0.114 0.061,0.266 0.191,0.457 l 3.061,4.713 z M -0.208,8.133 4.853,4.847 C 5.771,4.25 6.382,3.651 6.68,3.052 6.978,2.452 6.939,1.861 6.567,1.281 6.211,0.689 5.763,0.356 5.223,0.282 4.682,0.209 3.94,0.477 3,1.086 l -5.477,3.556 z" /></g><g
         transform="translate(260.0713,345.4636)"
         id="g88"><path
           inkscape:connector-curvature="0"
           id="path90"
           style="fill:#008940;fill-opacity:1;fill-rule:evenodd;stroke:none"
           d="M 0,0 C 0.144,0.182 0.277,0.28 0.405,0.296 0.532,0.313 0.697,0.234 0.898,0.061 L 1.132,0.337 -2.353,3.259 -2.583,2.983 C -2.34,2.783 -2.214,2.618 -2.205,2.488 -2.197,2.357 -2.271,2.207 -2.428,2.037 l -8.926,-10.638 c -0.14,-0.183 -0.275,-0.282 -0.406,-0.296 -0.13,-0.014 -0.313,0.082 -0.553,0.286 l -0.231,-0.276 3.482,-2.923 0.233,0.276 c -0.206,0.169 -0.313,0.317 -0.318,0.445 -0.006,0.129 0.067,0.279 0.22,0.451 z" /></g><g
         transform="translate(266.2852,328.0857)"
         id="g92"><path
           inkscape:connector-curvature="0"
           id="path94"
           style="fill:#008940;fill-opacity:1;fill-rule:evenodd;stroke:none"
           d="m 0,0 -3.546,3.802 5.941,2.021 z m -10.016,0.756 0.265,0.246 c -0.1,0.104 -0.152,0.203 -0.161,0.297 -0.01,0.095 0.032,0.186 0.127,0.274 0.027,0.034 0.121,0.082 0.283,0.143 0.162,0.06 0.494,0.179 0.995,0.354 0.501,0.176 1.275,0.454 2.32,0.833 l 5.106,-5.475 C -1.527,-3.642 -1.852,-4.426 -2.053,-4.925 -2.254,-5.424 -2.393,-5.752 -2.465,-5.91 -2.537,-6.068 -2.604,-6.17 -2.664,-6.216 -2.73,-6.277 -2.8,-6.3 -2.871,-6.285 c -0.071,0.015 -0.143,0.061 -0.214,0.139 l -0.265,-0.247 2.891,-3.099 0.264,0.246 c -0.078,0.084 -0.105,0.208 -0.078,0.371 0.025,0.163 0.093,0.375 0.206,0.637 L 5.566,5.547 C 5.613,5.666 5.652,5.773 5.685,5.869 5.716,5.966 5.764,6.045 5.826,6.108 5.887,6.16 5.954,6.179 6.03,6.166 6.105,6.152 6.173,6.116 6.229,6.058 L 6.493,6.304 3.391,9.63 3.127,9.385 C 3.178,9.323 3.202,9.253 3.197,9.175 3.192,9.097 3.171,9.038 3.132,8.998 3.054,8.93 2.968,8.877 2.873,8.841 2.777,8.806 2.684,8.772 2.589,8.741 L -10.983,4.117 c -0.382,-0.146 -0.686,-0.253 -0.913,-0.32 -0.223,-0.068 -0.424,-0.017 -0.602,0.151 l -0.265,-0.245 z" /></g><g
         transform="translate(279.8633,319.3127)"
         id="g96"><path
           inkscape:connector-curvature="0"
           id="path98"
           style="fill:#008940;fill-opacity:1;fill-rule:evenodd;stroke:none"
           d="m 0,0 -3.739,-13.991 c -0.051,-0.19 -0.099,-0.355 -0.143,-0.495 -0.044,-0.14 -0.095,-0.229 -0.146,-0.268 -0.07,-0.041 -0.138,-0.049 -0.209,-0.023 -0.072,0.026 -0.135,0.083 -0.193,0.172 l -0.304,-0.191 2.079,-3.328 0.304,0.192 c -0.089,0.14 -0.113,0.262 -0.067,0.367 0.045,0.106 0.166,0.219 0.362,0.338 l 11.778,7.359 c 0.194,0.125 0.348,0.184 0.464,0.179 0.114,-0.006 0.213,-0.08 0.298,-0.223 L 10.792,-9.72 8.878,-6.658 8.571,-6.849 C 8.655,-6.978 8.675,-7.094 8.629,-7.198 8.582,-7.301 8.46,-7.413 8.264,-7.533 L -0.315,-12.894 3.17,0.325 C 3.207,0.476 3.235,0.607 3.258,0.717 3.278,0.827 3.33,0.911 3.412,0.967 3.487,1.013 3.554,1.026 3.606,1.004 3.661,0.983 3.708,0.938 3.748,0.87 L 4.055,1.061 1.714,4.807 1.406,4.616 C 1.492,4.487 1.511,4.372 1.464,4.268 1.417,4.165 1.296,4.053 1.099,3.933 l -11.778,-7.359 c -0.193,-0.124 -0.347,-0.185 -0.462,-0.181 -0.112,0.003 -0.209,0.07 -0.288,0.203 l -0.304,-0.191 1.872,-2.996 0.304,0.191 c -0.07,0.108 -0.082,0.211 -0.031,0.309 0.05,0.099 0.173,0.209 0.368,0.33 z" /></g><g
         transform="translate(299.085,291.2605)"
         id="g100"><path
           inkscape:connector-curvature="0"
           id="path102"
           style="fill:#008940;fill-opacity:1;fill-rule:evenodd;stroke:none"
           d="m 0,0 -0.345,-0.104 c 0.075,-0.242 0.076,-0.414 0.004,-0.517 -0.072,-0.102 -0.215,-0.182 -0.427,-0.239 l -9.003,-2.752 c -2.067,-0.664 -3.292,-1.804 -3.676,-3.42 -0.383,-1.616 -0.195,-3.602 0.565,-5.958 0.688,-2.378 1.642,-4.13 2.863,-5.255 1.221,-1.126 2.875,-1.386 4.96,-0.779 l 9.003,2.753 c 0.209,0.067 0.371,0.08 0.489,0.036 0.117,-0.044 0.207,-0.17 0.268,-0.377 l 0.345,0.105 -1.238,4.05 -0.345,-0.105 c 0.061,-0.195 0.056,-0.341 -0.019,-0.441 -0.073,-0.1 -0.215,-0.179 -0.425,-0.239 l -9.103,-2.783 c -1.091,-0.334 -1.975,-0.181 -2.653,0.461 -0.678,0.641 -1.248,1.747 -1.711,3.318 -0.495,1.561 -0.641,2.797 -0.437,3.708 0.203,0.911 0.851,1.533 1.942,1.865 l 9.102,2.783 c 0.209,0.067 0.371,0.082 0.487,0.046 0.114,-0.036 0.196,-0.14 0.247,-0.311 l 0.344,0.105 z" /></g><g
         transform="translate(301.9551,262.4519)"
         id="g104"><path
           inkscape:connector-curvature="0"
           id="path106"
           style="fill:#008940;fill-opacity:1;fill-rule:evenodd;stroke:none"
           d="m 0,0 -9.684,-10.768 c -0.131,-0.147 -0.249,-0.272 -0.351,-0.377 -0.104,-0.105 -0.188,-0.162 -0.253,-0.172 -0.079,-0.006 -0.145,0.019 -0.196,0.074 -0.051,0.056 -0.082,0.136 -0.092,0.241 l -0.361,-0.032 0.343,-3.908 0.36,0.031 c -0.018,0.165 0.017,0.285 0.105,0.359 0.088,0.073 0.247,0.118 0.478,0.136 l 13.834,1.21 c 0.229,0.023 0.394,0.006 0.494,-0.051 0.099,-0.057 0.155,-0.169 0.166,-0.334 l 0.359,0.031 -0.314,3.597 -0.36,-0.032 c 0.017,-0.152 -0.019,-0.264 -0.107,-0.336 -0.089,-0.07 -0.248,-0.115 -0.479,-0.132 L -6.135,-11.345 2.971,-1.15 c 0.102,0.118 0.188,0.221 0.258,0.31 0.068,0.089 0.152,0.139 0.25,0.152 0.089,0.007 0.153,-0.011 0.191,-0.055 0.038,-0.043 0.059,-0.104 0.064,-0.183 l 0.36,0.031 -0.385,4.4 L 3.35,3.474 C 3.366,3.321 3.33,3.209 3.242,3.138 3.153,3.068 2.994,3.023 2.765,3.005 L -11.07,1.795 c -0.23,-0.022 -0.394,-0.006 -0.493,0.048 -0.1,0.054 -0.155,0.158 -0.166,0.312 l -0.358,-0.031 0.308,-3.52 0.359,0.031 c -0.016,0.129 0.023,0.226 0.111,0.291 0.089,0.066 0.248,0.108 0.479,0.127 z" /></g><g
         transform="translate(305.8213,238.0818)"
         id="g108"><path
           inkscape:connector-curvature="0"
           id="path110"
           style="fill:#008940;fill-opacity:1;fill-rule:evenodd;stroke:none"
           d="m 0,0 c 0.23,-0.002 0.393,-0.047 0.482,-0.138 0.091,-0.091 0.131,-0.268 0.12,-0.534 L 0.962,-0.685 1.12,3.859 0.76,3.872 C 0.752,3.558 0.698,3.356 0.603,3.27 0.505,3.183 0.341,3.148 0.11,3.166 l -13.879,0.485 c -0.229,-0.003 -0.39,0.044 -0.482,0.137 -0.092,0.094 -0.129,0.298 -0.115,0.612 l -0.362,0.013 -0.158,-4.544 0.362,-0.013 c 0.004,0.267 0.056,0.441 0.155,0.525 0.097,0.084 0.261,0.119 0.491,0.103 z" /></g><g
         transform="translate(302.7744,222.3606)"
         id="g112"><path
           inkscape:connector-curvature="0"
           id="path114"
           style="fill:#008940;fill-opacity:1;fill-rule:evenodd;stroke:none"
           d="m 0,0 c -0.345,-2.004 -1.113,-3.53 -2.31,-4.577 -1.195,-1.048 -2.635,-1.453 -4.323,-1.218 -1.678,0.297 -2.923,1.129 -3.735,2.494 -0.815,1.365 -1.073,3.055 -0.78,5.068 0.342,2.004 1.113,3.53 2.307,4.577 1.195,1.048 2.638,1.453 4.323,1.218 C -2.841,7.265 -1.595,6.434 -0.781,5.067 0.031,3.702 0.293,2.014 0,0 M 2.514,-0.397 C 2.8,1.512 2.702,3.244 2.223,4.801 1.742,6.357 0.961,7.638 -0.124,8.644 c -1.085,1.005 -2.393,1.637 -3.922,1.893 -1.532,0.229 -2.972,0.032 -4.313,-0.589 -1.343,-0.621 -2.484,-1.597 -3.42,-2.929 -0.939,-1.332 -1.566,-2.951 -1.883,-4.855 -0.286,-1.908 -0.191,-3.641 0.291,-5.197 0.478,-1.557 1.262,-2.838 2.347,-3.844 1.085,-1.006 2.39,-1.637 3.92,-1.894 1.534,-0.228 2.971,-0.032 4.315,0.589 1.342,0.621 2.481,1.598 3.42,2.93 0.936,1.332 1.563,2.95 1.883,4.855" /></g><g
         transform="translate(296.1465,203.4031)"
         id="g116"><path
           inkscape:connector-curvature="0"
           id="path118"
           style="fill:#008940;fill-opacity:1;fill-rule:evenodd;stroke:none"
           d="m 0,0 -13.424,-5.435 c -0.182,-0.072 -0.344,-0.133 -0.481,-0.183 -0.139,-0.049 -0.241,-0.065 -0.302,-0.044 -0.074,0.028 -0.122,0.081 -0.145,0.152 -0.021,0.073 -0.014,0.157 0.023,0.257 l -0.337,0.129 -1.405,-3.662 0.336,-0.129 c 0.055,0.155 0.139,0.248 0.252,0.274 0.112,0.029 0.274,-0.002 0.489,-0.087 l 12.965,-4.975 c 0.216,-0.08 0.355,-0.168 0.421,-0.264 0.063,-0.095 0.065,-0.22 0.003,-0.372 l 0.335,-0.131 1.294,3.371 -0.336,0.129 c -0.051,-0.143 -0.132,-0.228 -0.244,-0.254 -0.11,-0.024 -0.272,0.005 -0.488,0.089 l -9.443,3.626 12.653,5.172 c 0.145,0.062 0.267,0.116 0.366,0.166 0.102,0.05 0.198,0.059 0.293,0.026 C 2.908,-2.178 2.957,-2.222 2.974,-2.276 2.987,-2.333 2.98,-2.397 2.95,-2.471 L 3.287,-2.601 4.87,1.523 4.533,1.652 C 4.48,1.509 4.399,1.424 4.289,1.398 4.18,1.374 4.017,1.403 3.803,1.488 L -9.162,6.466 c -0.217,0.08 -0.359,0.167 -0.424,0.26 -0.064,0.09 -0.067,0.209 -0.011,0.351 l -0.337,0.13 -1.264,-3.299 0.336,-0.13 c 0.044,0.122 0.119,0.194 0.227,0.212 0.11,0.021 0.271,-0.011 0.487,-0.094 z" /></g><g
         transform="translate(70.0908,179.031)"
         id="g120"><path
           inkscape:connector-curvature="0"
           id="path122"
           style="fill:#008940;fill-opacity:1;fill-rule:evenodd;stroke:none"
           d="m 0,0 c 1.957,0 3.543,-1.587 3.543,-3.544 0,-1.957 -1.586,-3.543 -3.543,-3.543 -1.957,0 -3.544,1.586 -3.544,3.543 C -3.544,-1.587 -1.957,0 0,0" /></g><g
         transform="translate(276.6592,179.1892)"
         id="g124"><path
           inkscape:connector-curvature="0"
           id="path126"
           style="fill:#008940;fill-opacity:1;fill-rule:evenodd;stroke:none"
           d="M 0,0 C 1.957,0 3.544,-1.587 3.544,-3.543 3.544,-5.5 1.957,-7.088 0,-7.088 c -1.956,0 -3.543,1.588 -3.543,3.545 C -3.543,-1.587 -1.956,0 0,0" /></g><g
         transform="translate(61.7139,208.7742)"
         id="g128"><path
           inkscape:connector-curvature="0"
           id="path130"
           style="fill:#008940;fill-opacity:1;fill-rule:evenodd;stroke:none"
           d="m 0,0 -2.987,-1.206 0.135,-0.335 c 0.109,0.045 0.215,0.021 0.319,-0.067 0.103,-0.091 0.204,-0.256 0.302,-0.496 l 3.984,-9.863 -3.908,-1.579 -2.543,6.295 c -0.092,0.24 -0.123,0.43 -0.095,0.564 0.028,0.135 0.081,0.218 0.159,0.249 l -0.135,0.334 -3.035,-1.227 0.136,-0.334 c 0.108,0.046 0.212,0.026 0.314,-0.057 0.1,-0.083 0.199,-0.244 0.296,-0.482 l 2.543,-6.295 -3.715,-1.501 -3.916,9.693 c -0.099,0.252 -0.129,0.45 -0.092,0.59 0.037,0.144 0.118,0.238 0.243,0.284 l -0.135,0.335 -3.083,-1.246 0.135,-0.334 c 0.085,0.037 0.176,0.013 0.272,-0.075 0.097,-0.089 0.198,-0.257 0.3,-0.507 l 5.278,-13.065 0.335,0.135 c -0.074,0.174 -0.079,0.309 -0.015,0.404 0.063,0.094 0.203,0.182 0.419,0.264 l 12.876,5.203 c 0.212,0.09 0.374,0.124 0.485,0.099 0.11,-0.022 0.2,-0.124 0.269,-0.301 l 0.335,0.135 -5.348,13.236 c -0.099,0.239 -0.149,0.423 -0.151,0.554 -0.002,0.132 0.05,0.22 0.158,0.262 z" /></g><g
         transform="translate(44.646,209.6072)"
         id="g132"><path
           inkscape:connector-curvature="0"
           id="path134"
           style="fill:#008940;fill-opacity:1;fill-rule:evenodd;stroke:none"
           d="M 0,0 0.353,0.074 C 0.299,0.321 0.313,0.492 0.394,0.589 0.475,0.685 0.623,0.752 0.839,0.79 l 9.209,1.958 c 2.118,0.481 3.438,1.51 3.961,3.085 0.522,1.578 0.508,3.573 -0.044,5.984 -0.478,2.431 -1.276,4.259 -2.395,5.487 -1.118,1.227 -2.743,1.63 -4.874,1.208 l -9.208,-1.957 c -0.214,-0.052 -0.377,-0.05 -0.49,0.006 -0.112,0.053 -0.19,0.186 -0.234,0.397 l -0.353,-0.074 0.881,-4.143 0.353,0.074 c -0.044,0.201 -0.026,0.346 0.056,0.438 0.081,0.094 0.231,0.161 0.445,0.202 l 9.311,1.98 c 1.115,0.236 1.983,0.006 2.603,-0.691 0.62,-0.698 1.091,-1.849 1.416,-3.455 C 11.833,9.69 11.87,8.447 11.588,7.558 11.306,6.667 10.606,6.104 9.49,5.869 L 0.181,3.89 C -0.034,3.841 -0.196,3.839 -0.308,3.886 -0.419,3.932 -0.492,4.042 -0.527,4.218 L -0.881,4.143 Z" /></g><g
         transform="translate(49.291,243.4265)"
         id="g136"><path
           inkscape:connector-curvature="0"
           id="path138"
           style="fill:#008940;fill-opacity:1;fill-rule:evenodd;stroke:none"
           d="M 0,0 4.782,3.31 C 5.007,3.469 5.231,3.63 5.456,3.793 5.682,3.955 5.868,4.044 6.018,4.06 6.081,4.057 6.124,4.032 6.146,3.987 6.168,3.941 6.178,3.897 6.178,3.854 L 6.538,3.86 6.455,8.588 6.095,8.582 C 6.095,8.386 6.04,8.206 5.932,8.04 5.823,7.875 5.685,7.731 5.514,7.61 L -0.062,3.563 C -0.233,4.893 -0.722,5.948 -1.526,6.73 -2.331,7.513 -3.342,7.903 -4.556,7.902 -6.327,7.856 -7.57,7.183 -8.285,5.881 -9,4.58 -9.324,2.739 -9.26,0.358 l 0.155,-8.837 0.36,0.007 c -0.007,0.227 0.036,0.377 0.129,0.451 0.093,0.073 0.255,0.108 0.486,0.106 l 13.884,0.242 c 0.231,0.011 0.394,-0.019 0.49,-0.089 0.095,-0.069 0.144,-0.218 0.144,-0.446 L 6.749,-8.202 6.676,-4.02 6.315,-4.025 C 6.321,-4.216 6.278,-4.343 6.186,-4.408 6.092,-4.474 5.93,-4.505 5.699,-4.505 L 0.081,-4.603 Z m -6.626,-4.72 -0.105,6.033 c -0.02,1.097 0.135,1.936 0.466,2.519 0.331,0.582 0.841,0.881 1.53,0.897 0.69,0.036 1.217,-0.15 1.581,-0.557 0.363,-0.406 0.555,-1.171 0.577,-2.292 l 0.113,-6.527 z" /></g><g
         transform="translate(44.1191,267.0437)"
         id="g140"><path
           inkscape:connector-curvature="0"
           id="path142"
           style="fill:#008940;fill-opacity:1;fill-rule:evenodd;stroke:none"
           d="M 0,0 C 0.343,2.005 1.112,3.531 2.308,4.578 3.504,5.625 4.944,6.031 6.632,5.795 8.309,5.498 9.554,4.667 10.367,3.301 11.181,1.936 11.441,0.247 11.148,-1.766 10.805,-3.771 10.035,-5.297 8.84,-6.344 7.645,-7.391 6.203,-7.797 4.517,-7.562 2.839,-7.264 1.594,-6.433 0.78,-5.067 -0.033,-3.702 -0.293,-2.013 0,0 m -2.514,0.398 c -0.286,-1.909 -0.189,-3.641 0.29,-5.198 0.481,-1.556 1.263,-2.838 2.348,-3.844 1.085,-1.005 2.392,-1.636 3.921,-1.893 1.533,-0.229 2.972,-0.032 4.314,0.59 1.342,0.621 2.483,1.597 3.42,2.929 0.938,1.332 1.565,2.951 1.882,4.854 0.286,1.909 0.19,3.642 -0.29,5.198 C 12.892,4.591 12.108,5.872 11.023,6.877 9.938,7.883 8.632,8.515 7.103,8.771 5.569,9 4.132,8.803 2.789,8.182 1.446,7.561 0.307,6.584 -0.631,5.252 -1.568,3.92 -2.196,2.302 -2.514,0.398" /></g><g
         transform="translate(49.1572,286.3947)"
         id="g144"><path
           inkscape:connector-curvature="0"
           id="path146"
           style="fill:#008940;fill-opacity:1;fill-rule:evenodd;stroke:none"
           d="M 0,0 1.973,5.73 C 2.285,6.678 2.647,7.289 3.062,7.563 3.475,7.836 4.048,7.838 4.78,7.569 5.523,7.331 5.974,6.976 6.131,6.506 6.288,6.036 6.198,5.331 5.86,4.392 L 3.888,-1.339 Z M 8.479,4.178 C 9.062,5.949 9.089,7.349 8.562,8.379 8.033,9.408 7.134,10.131 5.861,10.548 4.342,11.063 3.075,11.008 2.064,10.382 1.054,9.756 0.269,8.621 -0.289,6.977 l -3.318,-9.637 0.341,-0.117 c 0.067,0.205 0.157,0.324 0.268,0.358 0.111,0.034 0.275,0.011 0.491,-0.069 L 10.624,-7.01 c 0.22,-0.069 0.363,-0.152 0.431,-0.247 0.066,-0.097 0.063,-0.245 -0.01,-0.447 l 0.341,-0.118 1.362,3.955 -0.342,0.118 c -0.062,-0.193 -0.149,-0.305 -0.26,-0.337 -0.111,-0.032 -0.274,-0.008 -0.491,0.072 l -5.362,1.847 z" /></g><g
         transform="translate(75.396,310.114)"
         id="g148"><path
           inkscape:connector-curvature="0"
           id="path150"
           style="fill:#008940;fill-opacity:1;fill-rule:evenodd;stroke:none"
           d="M 0,0 -2.817,1.562 -2.992,1.246 C -2.889,1.19 -2.839,1.094 -2.845,0.956 -2.849,0.818 -2.914,0.637 -3.039,0.41 l -5.157,-9.304 -3.687,2.044 3.291,5.938 c 0.13,0.223 0.257,0.366 0.38,0.429 0.123,0.063 0.221,0.074 0.292,0.031 l 0.175,0.316 -2.862,1.587 -0.175,-0.316 c 0.103,-0.055 0.155,-0.148 0.153,-0.279 -0.001,-0.13 -0.063,-0.309 -0.188,-0.535 l -3.291,-5.937 -3.505,1.943 5.068,9.144 c 0.134,0.235 0.269,0.383 0.401,0.443 0.134,0.06 0.259,0.057 0.374,-0.011 l 0.175,0.316 -2.908,1.612 -0.175,-0.316 c 0.083,-0.042 0.12,-0.129 0.113,-0.259 -0.007,-0.131 -0.076,-0.315 -0.206,-0.552 l -6.831,-12.324 0.316,-0.175 c 0.089,0.168 0.19,0.256 0.304,0.266 0.113,0.008 0.269,-0.043 0.468,-0.159 l 12.146,-6.733 c 0.205,-0.107 0.333,-0.212 0.385,-0.313 0.05,-0.101 0.029,-0.234 -0.066,-0.399 l 0.316,-0.175 6.92,12.485 c 0.124,0.227 0.236,0.383 0.336,0.467 0.101,0.084 0.202,0.098 0.302,0.041 z" /></g><g
         transform="translate(78.5752,325.5598)"
         id="g152"><path
           inkscape:connector-curvature="0"
           id="path154"
           style="fill:#008940;fill-opacity:1;fill-rule:evenodd;stroke:none"
           d="m 0,0 -3.271,-4.04 -2.83,5.602 z m 0.646,-10.022 -0.281,0.227 c -0.09,-0.112 -0.18,-0.18 -0.272,-0.202 -0.092,-0.022 -0.189,0.007 -0.289,0.088 -0.038,0.022 -0.098,0.109 -0.181,0.262 -0.082,0.151 -0.246,0.463 -0.489,0.935 -0.244,0.472 -0.627,1.199 -1.148,2.182 l 4.711,5.818 C 3.818,-1.005 4.64,-1.217 5.162,-1.347 5.685,-1.477 6.029,-1.567 6.195,-1.617 6.362,-1.668 6.473,-1.72 6.526,-1.772 6.596,-1.83 6.629,-1.896 6.623,-1.968 6.618,-2.041 6.582,-2.118 6.516,-2.199 l 0.28,-0.227 2.667,3.293 -0.28,0.227 C 9.11,1.005 8.991,0.961 8.826,0.964 8.661,0.967 8.441,1.006 8.167,1.08 L -6.269,4.741 c -0.124,0.03 -0.235,0.054 -0.335,0.072 -0.1,0.018 -0.185,0.053 -0.256,0.107 -0.06,0.052 -0.088,0.117 -0.085,0.194 0.003,0.077 0.029,0.148 0.079,0.212 l -0.28,0.227 -2.864,-3.535 0.281,-0.227 c 0.054,0.059 0.12,0.092 0.198,0.099 0.078,0.006 0.139,-0.007 0.184,-0.041 0.079,-0.067 0.143,-0.145 0.191,-0.234 0.049,-0.089 0.095,-0.178 0.139,-0.267 l 6.468,-12.797 c 0.198,-0.359 0.347,-0.644 0.445,-0.858 0.097,-0.214 0.075,-0.42 -0.067,-0.619 l 0.28,-0.227 z" /></g><g
         transform="translate(85.439,340.1579)"
         id="g156"><path
           inkscape:connector-curvature="0"
           id="path158"
           style="fill:#008940;fill-opacity:1;fill-rule:evenodd;stroke:none"
           d="m 0,0 14.374,-1.756 c 0.196,-0.024 0.366,-0.048 0.511,-0.072 0.145,-0.025 0.24,-0.061 0.286,-0.109 0.05,-0.061 0.067,-0.128 0.052,-0.203 -0.016,-0.073 -0.064,-0.145 -0.144,-0.213 l 0.233,-0.276 3.004,2.521 -0.232,0.276 C 17.959,0.059 17.841,0.02 17.73,0.05 17.619,0.08 17.491,0.184 17.345,0.362 L 8.418,11 c -0.15,0.175 -0.23,0.32 -0.241,0.435 -0.011,0.114 0.049,0.223 0.178,0.328 L 8.123,12.039 5.357,9.718 5.589,9.441 C 5.705,9.543 5.817,9.578 5.926,9.546 6.035,9.514 6.163,9.409 6.31,9.231 l 6.502,-7.75 -13.575,1.612 c -0.155,0.016 -0.289,0.027 -0.4,0.033 -0.112,0.005 -0.202,0.045 -0.27,0.118 -0.056,0.069 -0.078,0.132 -0.064,0.188 0.014,0.056 0.052,0.109 0.113,0.159 l -0.231,0.276 -3.384,-2.84 0.231,-0.276 c 0.117,0.102 0.229,0.137 0.337,0.104 0.11,-0.031 0.237,-0.136 0.383,-0.314 l 8.927,-10.638 c 0.15,-0.175 0.231,-0.32 0.244,-0.432 0.013,-0.113 -0.042,-0.217 -0.161,-0.314 l 0.231,-0.276 2.706,2.271 -0.231,0.276 C 7.571,-8.657 7.471,-8.683 7.366,-8.647 7.262,-8.612 7.136,-8.505 6.987,-8.328 Z" /></g><g
         transform="translate(121.3989,368.1408)"
         id="g160"><path
           inkscape:connector-curvature="0"
           id="path162"
           style="fill:#008940;fill-opacity:1;fill-rule:evenodd;stroke:none"
           d="m 0,0 0.152,-0.327 c 0.098,0.046 0.194,0.068 0.286,0.065 0.092,-0.003 0.16,-0.045 0.202,-0.125 0.041,-0.134 0.069,-0.582 0.085,-1.344 0.015,-0.763 0.034,-1.603 0.053,-2.522 l 0.224,-8.475 -6.443,5.575 c -0.955,0.811 -1.678,1.419 -2.17,1.824 -0.493,0.407 -0.759,0.647 -0.796,0.724 -0.036,0.083 -0.029,0.159 0.024,0.23 0.053,0.071 0.134,0.131 0.242,0.181 l -0.152,0.327 -4.053,-1.889 0.153,-0.327 c 0.255,0.104 0.466,0.102 0.634,-0.006 0.167,-0.109 0.318,-0.225 0.45,-0.35 l 11.288,-9.629 c 0.096,-0.077 0.193,-0.16 0.288,-0.249 0.096,-0.089 0.154,-0.154 0.177,-0.194 0.032,-0.06 0.038,-0.122 0.019,-0.188 -0.018,-0.066 -0.091,-0.129 -0.216,-0.191 l 0.153,-0.326 3.863,1.801 -0.152,0.327 c -0.134,-0.049 -0.241,-0.069 -0.32,-0.059 -0.079,0.009 -0.135,0.049 -0.167,0.119 -0.036,0.079 -0.056,0.164 -0.061,0.255 -0.005,0.09 -0.011,0.204 -0.016,0.34 L 3.356,0.306 C 3.346,0.55 3.375,0.769 3.445,0.961 3.516,1.154 3.628,1.288 3.78,1.365 L 3.628,1.692 Z" /></g><g
         transform="translate(150.0669,360.3308)"
         id="g164"><path
           inkscape:connector-curvature="0"
           id="path166"
           style="fill:#008940;fill-opacity:1;fill-rule:evenodd;stroke:none"
           d="M 0,0 -0.834,3.111 -1.182,3.018 C -1.15,2.904 -1.186,2.802 -1.288,2.71 -1.391,2.618 -1.566,2.538 -1.816,2.471 l -10.275,-2.753 -1.091,4.071 6.558,1.757 c 0.25,0.061 0.441,0.07 0.572,0.025 0.131,-0.044 0.206,-0.107 0.226,-0.188 L -5.479,5.476 -6.325,8.638 -6.674,8.544 C -6.642,8.432 -6.672,8.33 -6.768,8.24 -6.862,8.15 -7.034,8.071 -7.283,8.004 l -6.558,-1.757 -1.037,3.871 10.099,2.706 c 0.262,0.067 0.461,0.072 0.597,0.019 0.137,-0.055 0.221,-0.147 0.252,-0.276 l 0.349,0.093 -0.86,3.212 -0.349,-0.094 c 0.026,-0.089 -0.01,-0.175 -0.108,-0.261 -0.099,-0.085 -0.279,-0.163 -0.54,-0.235 l -13.611,-3.647 0.093,-0.349 c 0.183,0.052 0.317,0.041 0.403,-0.033 0.085,-0.075 0.156,-0.225 0.211,-0.448 l 3.594,-13.414 c 0.064,-0.222 0.078,-0.387 0.042,-0.494 -0.037,-0.108 -0.148,-0.184 -0.332,-0.23 l 0.093,-0.349 13.788,3.695 c 0.249,0.068 0.439,0.095 0.57,0.082 0.13,-0.014 0.21,-0.077 0.238,-0.189 z" /></g><g
         transform="translate(167.2051,365.9377)"
         id="g168"><path
           inkscape:connector-curvature="0"
           id="path170"
           style="fill:#008940;fill-opacity:1;fill-rule:evenodd;stroke:none"
           d="m 0,0 c -0.302,-0.25 -0.872,-0.518 -1.713,-0.803 -0.84,-0.284 -1.744,-0.477 -2.711,-0.576 -1.982,-0.174 -3.639,0.152 -4.972,0.978 -1.333,0.826 -2.102,2.175 -2.306,4.049 -0.089,1.205 0.126,2.251 0.644,3.138 0.518,0.887 1.243,1.591 2.173,2.112 0.931,0.52 1.97,0.832 3.117,0.935 1.112,0.08 2.076,0.025 2.894,-0.165 C -2.057,9.479 -1.422,9.256 -0.97,9 -0.518,8.744 -0.283,8.556 -0.269,8.435 -0.262,8.346 -0.261,8.278 -0.267,8.23 -0.273,8.182 -0.282,8.145 -0.293,8.12 L 0.03,7.965 1.592,11.596 1.189,11.717 C 1.093,11.626 0.993,11.574 0.89,11.561 c -0.096,0 -0.32,0.055 -0.67,0.166 -0.351,0.111 -0.795,0.232 -1.333,0.363 -0.56,0.141 -1.234,0.244 -2.023,0.313 -0.789,0.068 -1.688,0.06 -2.699,-0.021 -1.798,-0.161 -3.39,-0.618 -4.773,-1.371 -1.384,-0.754 -2.447,-1.773 -3.187,-3.059 -0.74,-1.286 -1.043,-2.808 -0.908,-4.567 0.179,-1.852 0.727,-3.346 1.646,-4.481 0.918,-1.134 2.106,-1.934 3.563,-2.398 1.458,-0.464 3.084,-0.616 4.881,-0.457 1.606,0.146 3.098,0.494 4.474,1.043 1.376,0.55 2.549,1.261 3.518,2.133 L 3.348,-0.413 C 3.24,-0.374 3.162,-0.32 3.111,-0.253 3.061,-0.187 3.03,-0.083 3.02,0.055 L 2.641,4.381 c -0.019,0.202 -0.01,0.344 0.027,0.43 0.037,0.085 0.105,0.148 0.205,0.19 L 2.842,5.363 -4.28,4.74 C -4.49,4.725 -4.658,4.75 -4.783,4.814 -4.908,4.878 -4.977,4.963 -4.988,5.07 l -0.36,-0.031 0.297,-3.391 0.36,0.031 c -0.008,0.111 0.044,0.22 0.154,0.327 0.109,0.108 0.269,0.174 0.478,0.199 l 3.836,0.336 z" /></g><g
         transform="translate(190.6611,361.4045)"
         id="g172"><path
           inkscape:connector-curvature="0"
           id="path174"
           style="fill:#008940;fill-opacity:1;fill-rule:evenodd;stroke:none"
           d="M 0,0 0.28,3.208 -0.079,3.24 C -0.088,3.123 -0.156,3.039 -0.284,2.987 -0.411,2.936 -0.604,2.921 -0.862,2.943 l -10.597,0.928 0.368,4.198 6.763,-0.591 C -4.071,7.45 -3.89,7.393 -3.782,7.306 -3.674,7.219 -3.625,7.134 -3.634,7.051 l 0.36,-0.031 0.285,3.261 -0.361,0.031 c -0.007,-0.117 -0.071,-0.202 -0.191,-0.254 -0.12,-0.052 -0.31,-0.067 -0.565,-0.045 l -6.763,0.591 0.348,3.992 10.417,-0.911 C 0.164,13.658 0.354,13.596 0.463,13.499 0.572,13.401 0.62,13.286 0.604,13.153 l 0.361,-0.031 0.29,3.312 -0.359,0.031 C 0.89,16.373 0.826,16.303 0.704,16.257 0.582,16.21 0.387,16.198 0.117,16.22 l -14.038,1.229 -0.031,-0.36 c 0.189,-0.013 0.31,-0.069 0.366,-0.169 0.055,-0.099 0.069,-0.264 0.045,-0.493 l -1.21,-13.835 c -0.017,-0.23 -0.06,-0.389 -0.13,-0.477 -0.071,-0.089 -0.202,-0.123 -0.39,-0.103 l -0.033,-0.36 14.22,-1.244 c 0.259,-0.021 0.446,-0.06 0.563,-0.118 0.12,-0.058 0.171,-0.144 0.162,-0.258 z" /></g><g
         transform="translate(203.8672,359.1355)"
         id="g176"><path
           inkscape:connector-curvature="0"
           id="path178"
           style="fill:#008940;fill-opacity:1;fill-rule:evenodd;stroke:none"
           d="m 0,0 c -0.21,0.049 -0.341,0.128 -0.394,0.238 -0.049,0.111 -0.045,0.277 0.015,0.499 L 2.604,12.698 7.602,11.452 C 7.853,11.393 8.027,11.329 8.13,11.26 8.23,11.191 8.266,11.096 8.231,10.973 L 8.582,10.886 9.35,13.96 8.999,14.048 C 8.974,13.936 8.898,13.87 8.775,13.854 8.652,13.834 8.467,13.857 8.217,13.921 L -4.854,17.18 c -0.25,0.061 -0.425,0.128 -0.525,0.202 -0.1,0.073 -0.137,0.166 -0.105,0.277 l -0.35,0.087 -0.769,-3.074 0.352,-0.088 c 0.027,0.124 0.104,0.192 0.226,0.206 0.121,0.013 0.306,-0.014 0.556,-0.079 L -0.471,13.465 -3.453,1.504 C -3.503,1.279 -3.573,1.129 -3.662,1.054 -3.752,0.979 -3.901,0.969 -4.109,1.024 l -0.087,-0.35 4.109,-1.025 z" /></g><g
         transform="translate(223.8516,359.0905)"
         id="g180"><path
           inkscape:connector-curvature="0"
           id="path182"
           style="fill:#008940;fill-opacity:1;fill-rule:evenodd;stroke:none"
           d="M 0,0 -4.819,1.948 -0.29,6.29 Z m -9.396,-3.547 0.136,0.334 c -0.134,0.053 -0.223,0.12 -0.272,0.202 -0.048,0.081 -0.048,0.182 0,0.302 0.01,0.042 0.075,0.125 0.196,0.249 0.121,0.123 0.371,0.37 0.751,0.742 0.381,0.371 0.965,0.949 1.751,1.735 L 0.107,-2.788 C 0.155,-3.945 0.193,-4.793 0.223,-5.33 0.25,-5.868 0.265,-6.224 0.266,-6.397 0.267,-6.572 0.248,-6.692 0.214,-6.76 0.179,-6.843 0.125,-6.893 0.056,-6.909 -0.017,-6.926 -0.101,-6.914 -0.196,-6.874 l -0.137,-0.334 3.93,-1.588 0.134,0.335 C 3.625,-8.418 3.55,-8.317 3.504,-8.159 3.457,-8 3.431,-7.778 3.422,-7.494 L 2.701,7.381 C 2.693,7.508 2.685,7.622 2.673,7.723 2.66,7.823 2.67,7.915 2.699,7.999 2.731,8.071 2.785,8.117 2.86,8.137 2.936,8.157 3.011,8.152 3.087,8.123 L 3.222,8.458 -0.996,10.162 -1.132,9.827 C -1.06,9.793 -1.009,9.74 -0.979,9.667 -0.949,9.595 -0.944,9.532 -0.965,9.479 -1.006,9.384 -1.062,9.3 -1.133,9.228 -1.202,9.155 -1.274,9.085 -1.348,9.017 L -11.693,-0.91 c -0.286,-0.295 -0.516,-0.52 -0.692,-0.675 -0.175,-0.156 -0.379,-0.195 -0.61,-0.118 l -0.136,-0.335 z" /></g><g
         transform="translate(241.1611,349.4387)"
         id="g184"><path
           inkscape:connector-curvature="0"
           id="path186"
           style="fill:#008940;fill-opacity:1;fill-rule:evenodd;stroke:none"
           d="M 0,0 0.069,-5.814 C 0.076,-6.09 0.084,-6.366 0.093,-6.644 0.102,-6.921 0.071,-7.126 0,-7.258 -0.038,-7.31 -0.082,-7.331 -0.132,-7.324 c -0.051,0.008 -0.094,0.023 -0.128,0.048 l -0.196,-0.302 3.966,-2.576 0.197,0.302 c -0.163,0.111 -0.282,0.256 -0.358,0.439 -0.078,0.182 -0.12,0.378 -0.122,0.587 L 2.988,-1.94 c 1.199,-0.602 2.347,-0.788 3.446,-0.558 1.098,0.23 1.986,0.849 2.665,1.856 0.952,1.495 1.089,2.902 0.41,4.222 C 8.829,4.9 7.485,6.199 5.476,7.477 l -7.414,4.814 -0.196,-0.303 c 0.193,-0.121 0.293,-0.241 0.302,-0.359 0.009,-0.118 -0.053,-0.272 -0.185,-0.462 L -9.579,-0.479 c -0.12,-0.197 -0.236,-0.316 -0.348,-0.356 -0.111,-0.04 -0.261,0.003 -0.45,0.13 l -0.196,-0.303 3.508,-2.278 0.196,0.303 c -0.161,0.1 -0.242,0.208 -0.244,0.321 -0.002,0.114 0.061,0.266 0.191,0.457 l 3.061,4.713 z M -0.208,8.133 4.853,4.847 C 5.771,4.25 6.382,3.651 6.68,3.052 6.978,2.452 6.939,1.861 6.567,1.281 6.211,0.689 5.763,0.356 5.223,0.282 4.682,0.209 3.94,0.477 3,1.086 l -5.477,3.556 z" /></g><g
         transform="translate(260.0713,345.4636)"
         id="g188"><path
           inkscape:connector-curvature="0"
           id="path190"
           style="fill:#008940;fill-opacity:1;fill-rule:evenodd;stroke:none"
           d="M 0,0 C 0.144,0.182 0.277,0.28 0.405,0.296 0.532,0.313 0.697,0.234 0.898,0.061 L 1.132,0.337 -2.353,3.259 -2.583,2.983 C -2.34,2.783 -2.214,2.618 -2.205,2.488 -2.197,2.357 -2.271,2.207 -2.428,2.037 l -8.926,-10.638 c -0.14,-0.183 -0.275,-0.282 -0.406,-0.296 -0.13,-0.014 -0.313,0.082 -0.553,0.286 l -0.231,-0.276 3.482,-2.923 0.233,0.276 c -0.206,0.169 -0.313,0.317 -0.318,0.445 -0.006,0.129 0.067,0.279 0.22,0.451 z" /></g><g
         transform="translate(266.2852,328.0857)"
         id="g192"><path
           inkscape:connector-curvature="0"
           id="path194"
           style="fill:#008940;fill-opacity:1;fill-rule:evenodd;stroke:none"
           d="m 0,0 -3.546,3.802 5.941,2.021 z m -10.016,0.756 0.265,0.246 c -0.1,0.104 -0.152,0.203 -0.161,0.297 -0.01,0.095 0.032,0.186 0.127,0.274 0.027,0.034 0.121,0.082 0.283,0.143 0.162,0.06 0.494,0.179 0.995,0.354 0.501,0.176 1.275,0.454 2.32,0.833 l 5.106,-5.475 C -1.527,-3.642 -1.852,-4.426 -2.053,-4.925 -2.254,-5.424 -2.393,-5.752 -2.465,-5.91 -2.537,-6.068 -2.604,-6.17 -2.664,-6.216 -2.73,-6.277 -2.8,-6.3 -2.871,-6.285 c -0.071,0.015 -0.143,0.061 -0.214,0.139 l -0.265,-0.247 2.891,-3.099 0.264,0.246 c -0.078,0.084 -0.105,0.208 -0.078,0.371 0.025,0.163 0.093,0.375 0.206,0.637 L 5.566,5.547 C 5.613,5.666 5.652,5.773 5.685,5.869 5.716,5.966 5.764,6.045 5.826,6.108 5.887,6.16 5.954,6.179 6.03,6.166 6.105,6.152 6.173,6.116 6.229,6.058 L 6.493,6.304 3.391,9.63 3.127,9.385 C 3.178,9.323 3.202,9.253 3.197,9.175 3.192,9.097 3.171,9.038 3.132,8.998 3.054,8.93 2.968,8.877 2.873,8.841 2.777,8.806 2.684,8.772 2.589,8.741 L -10.983,4.117 c -0.382,-0.146 -0.686,-0.253 -0.913,-0.32 -0.223,-0.068 -0.424,-0.017 -0.602,0.151 l -0.265,-0.245 z" /></g><g
         transform="translate(279.8633,319.3127)"
         id="g196"><path
           inkscape:connector-curvature="0"
           id="path198"
           style="fill:#008940;fill-opacity:1;fill-rule:evenodd;stroke:none"
           d="m 0,0 -3.739,-13.991 c -0.051,-0.19 -0.099,-0.355 -0.143,-0.495 -0.044,-0.14 -0.095,-0.229 -0.146,-0.268 -0.07,-0.041 -0.138,-0.049 -0.209,-0.023 -0.072,0.026 -0.135,0.083 -0.193,0.172 l -0.304,-0.191 2.079,-3.328 0.304,0.192 c -0.089,0.14 -0.113,0.262 -0.067,0.367 0.045,0.106 0.166,0.219 0.362,0.338 l 11.778,7.359 c 0.194,0.125 0.348,0.184 0.464,0.179 0.114,-0.006 0.213,-0.08 0.298,-0.223 L 10.792,-9.72 8.878,-6.658 8.571,-6.849 C 8.655,-6.978 8.675,-7.094 8.629,-7.198 8.582,-7.301 8.46,-7.413 8.264,-7.533 L -0.315,-12.894 3.17,0.325 C 3.207,0.476 3.235,0.607 3.258,0.717 3.278,0.827 3.33,0.911 3.412,0.967 3.487,1.013 3.554,1.026 3.606,1.004 3.661,0.983 3.708,0.938 3.748,0.87 L 4.055,1.061 1.714,4.807 1.406,4.616 C 1.492,4.487 1.511,4.372 1.464,4.268 1.417,4.165 1.296,4.053 1.099,3.933 l -11.778,-7.359 c -0.193,-0.124 -0.347,-0.185 -0.462,-0.181 -0.112,0.003 -0.209,0.07 -0.288,0.203 l -0.304,-0.191 1.872,-2.996 0.304,0.191 c -0.07,0.108 -0.082,0.211 -0.031,0.309 0.05,0.099 0.173,0.209 0.368,0.33 z" /></g><g
         transform="translate(299.085,291.2605)"
         id="g200"><path
           inkscape:connector-curvature="0"
           id="path202"
           style="fill:#008940;fill-opacity:1;fill-rule:evenodd;stroke:none"
           d="m 0,0 -0.345,-0.104 c 0.075,-0.242 0.076,-0.414 0.004,-0.517 -0.072,-0.102 -0.215,-0.182 -0.427,-0.239 l -9.003,-2.752 c -2.067,-0.664 -3.292,-1.804 -3.676,-3.42 -0.383,-1.616 -0.195,-3.602 0.565,-5.958 0.688,-2.378 1.642,-4.13 2.863,-5.255 1.221,-1.126 2.875,-1.386 4.96,-0.779 l 9.003,2.753 c 0.209,0.067 0.371,0.08 0.489,0.036 0.117,-0.044 0.207,-0.17 0.268,-0.377 l 0.345,0.105 -1.238,4.05 -0.345,-0.105 c 0.061,-0.195 0.056,-0.341 -0.019,-0.441 -0.073,-0.1 -0.215,-0.179 -0.425,-0.239 l -9.103,-2.783 c -1.091,-0.334 -1.975,-0.181 -2.653,0.461 -0.678,0.641 -1.248,1.747 -1.711,3.318 -0.495,1.561 -0.641,2.797 -0.437,3.708 0.203,0.911 0.851,1.533 1.942,1.865 l 9.102,2.783 c 0.209,0.067 0.371,0.082 0.487,0.046 0.114,-0.036 0.196,-0.14 0.247,-0.311 l 0.344,0.105 z" /></g><g
         transform="translate(301.9551,262.4519)"
         id="g204"><path
           inkscape:connector-curvature="0"
           id="path206"
           style="fill:#008940;fill-opacity:1;fill-rule:evenodd;stroke:none"
           d="m 0,0 -9.684,-10.768 c -0.131,-0.147 -0.249,-0.272 -0.351,-0.377 -0.104,-0.105 -0.188,-0.162 -0.253,-0.172 -0.079,-0.006 -0.145,0.019 -0.196,0.074 -0.051,0.056 -0.082,0.136 -0.092,0.241 l -0.361,-0.032 0.343,-3.908 0.36,0.031 c -0.018,0.165 0.017,0.285 0.105,0.359 0.088,0.073 0.247,0.118 0.478,0.136 l 13.834,1.21 c 0.229,0.023 0.394,0.006 0.494,-0.051 0.099,-0.057 0.155,-0.169 0.166,-0.334 l 0.359,0.031 -0.314,3.597 -0.36,-0.032 c 0.017,-0.152 -0.019,-0.264 -0.107,-0.336 -0.089,-0.07 -0.248,-0.115 -0.479,-0.132 L -6.135,-11.345 2.971,-1.15 c 0.102,0.118 0.188,0.221 0.258,0.31 0.068,0.089 0.152,0.139 0.25,0.152 0.089,0.007 0.153,-0.011 0.191,-0.055 0.038,-0.043 0.059,-0.104 0.064,-0.183 l 0.36,0.031 -0.385,4.4 L 3.35,3.474 C 3.366,3.321 3.33,3.209 3.242,3.138 3.153,3.068 2.994,3.023 2.765,3.005 L -11.07,1.795 c -0.23,-0.022 -0.394,-0.006 -0.493,0.048 -0.1,0.054 -0.155,0.158 -0.166,0.312 l -0.358,-0.031 0.308,-3.52 0.359,0.031 c -0.016,0.129 0.023,0.226 0.111,0.291 0.089,0.066 0.248,0.108 0.479,0.127 z" /></g><g
         transform="translate(305.8213,238.0818)"
         id="g208"><path
           inkscape:connector-curvature="0"
           id="path210"
           style="fill:#008940;fill-opacity:1;fill-rule:evenodd;stroke:none"
           d="m 0,0 c 0.23,-0.002 0.393,-0.047 0.482,-0.138 0.091,-0.091 0.131,-0.268 0.12,-0.534 L 0.962,-0.685 1.12,3.859 0.76,3.872 C 0.752,3.558 0.698,3.356 0.603,3.27 0.505,3.183 0.341,3.148 0.11,3.166 l -13.879,0.485 c -0.229,-0.003 -0.39,0.044 -0.482,0.137 -0.092,0.094 -0.129,0.298 -0.115,0.612 l -0.362,0.013 -0.158,-4.544 0.362,-0.013 c 0.004,0.267 0.056,0.441 0.155,0.525 0.097,0.084 0.261,0.119 0.491,0.103 z" /></g><g
         transform="translate(302.7744,222.3606)"
         id="g212"><path
           inkscape:connector-curvature="0"
           id="path214"
           style="fill:#008940;fill-opacity:1;fill-rule:evenodd;stroke:none"
           d="m 0,0 c -0.345,-2.004 -1.113,-3.53 -2.31,-4.577 -1.195,-1.048 -2.635,-1.453 -4.323,-1.218 -1.678,0.297 -2.923,1.129 -3.735,2.494 -0.815,1.365 -1.073,3.055 -0.78,5.068 0.342,2.004 1.113,3.53 2.307,4.577 1.195,1.048 2.638,1.453 4.323,1.218 C -2.841,7.265 -1.595,6.434 -0.781,5.067 0.031,3.702 0.293,2.014 0,0 M 2.514,-0.397 C 2.8,1.512 2.702,3.244 2.223,4.801 1.742,6.357 0.961,7.638 -0.124,8.644 c -1.085,1.005 -2.393,1.637 -3.922,1.893 -1.532,0.229 -2.972,0.032 -4.313,-0.589 -1.343,-0.621 -2.484,-1.597 -3.42,-2.929 -0.939,-1.332 -1.566,-2.951 -1.883,-4.855 -0.286,-1.908 -0.191,-3.641 0.291,-5.197 0.478,-1.557 1.262,-2.838 2.347,-3.844 1.085,-1.006 2.39,-1.637 3.92,-1.894 1.534,-0.228 2.971,-0.032 4.315,0.589 1.342,0.621 2.481,1.598 3.42,2.93 0.936,1.332 1.563,2.95 1.883,4.855" /></g><g
         transform="translate(296.1465,203.4031)"
         id="g216"><path
           inkscape:connector-curvature="0"
           id="path218"
           style="fill:#008940;fill-opacity:1;fill-rule:evenodd;stroke:none"
           d="m 0,0 -13.424,-5.435 c -0.182,-0.072 -0.344,-0.133 -0.481,-0.183 -0.139,-0.049 -0.241,-0.065 -0.302,-0.044 -0.074,0.028 -0.122,0.081 -0.145,0.152 -0.021,0.073 -0.014,0.157 0.023,0.257 l -0.337,0.129 -1.405,-3.662 0.336,-0.129 c 0.055,0.155 0.139,0.248 0.252,0.274 0.112,0.029 0.274,-0.002 0.489,-0.087 l 12.965,-4.975 c 0.216,-0.08 0.355,-0.168 0.421,-0.264 0.063,-0.095 0.065,-0.22 0.003,-0.372 l 0.335,-0.131 1.294,3.371 -0.336,0.129 c -0.051,-0.143 -0.132,-0.228 -0.244,-0.254 -0.11,-0.024 -0.272,0.005 -0.488,0.089 l -9.443,3.626 12.653,5.172 c 0.145,0.062 0.267,0.116 0.366,0.166 0.102,0.05 0.198,0.059 0.293,0.026 C 2.908,-2.178 2.957,-2.222 2.974,-2.276 2.987,-2.333 2.98,-2.397 2.95,-2.471 L 3.287,-2.601 4.87,1.523 4.533,1.652 C 4.48,1.509 4.399,1.424 4.289,1.398 4.18,1.374 4.017,1.403 3.803,1.488 L -9.162,6.466 c -0.217,0.08 -0.359,0.167 -0.424,0.26 -0.064,0.09 -0.067,0.209 -0.011,0.351 l -0.337,0.13 -1.264,-3.299 0.336,-0.13 c 0.044,0.122 0.119,0.194 0.227,0.212 0.11,0.021 0.271,-0.011 0.487,-0.094 z" /></g><g
         transform="translate(61.7139,208.7742)"
         id="g220"><path
           inkscape:connector-curvature="0"
           id="path222"
           style="fill:#008940;fill-opacity:1;fill-rule:evenodd;stroke:none"
           d="m 0,0 -2.987,-1.206 0.135,-0.335 c 0.109,0.045 0.215,0.021 0.319,-0.067 0.103,-0.091 0.204,-0.256 0.302,-0.496 l 3.984,-9.863 -3.908,-1.579 -2.543,6.295 c -0.092,0.24 -0.123,0.43 -0.095,0.564 0.028,0.135 0.081,0.218 0.159,0.249 l -0.135,0.334 -3.035,-1.227 0.136,-0.334 c 0.108,0.046 0.212,0.026 0.314,-0.057 0.1,-0.083 0.199,-0.244 0.296,-0.482 l 2.543,-6.295 -3.715,-1.501 -3.916,9.693 c -0.099,0.252 -0.129,0.45 -0.092,0.59 0.037,0.144 0.118,0.238 0.243,0.284 l -0.135,0.335 -3.083,-1.246 0.135,-0.334 c 0.085,0.037 0.176,0.013 0.272,-0.075 0.097,-0.089 0.198,-0.257 0.3,-0.507 l 5.278,-13.065 0.335,0.135 c -0.074,0.174 -0.079,0.309 -0.015,0.404 0.063,0.094 0.203,0.182 0.419,0.264 l 12.876,5.203 c 0.212,0.09 0.374,0.124 0.485,0.099 0.11,-0.022 0.2,-0.124 0.269,-0.301 l 0.335,0.135 -5.348,13.236 c -0.099,0.239 -0.149,0.423 -0.151,0.554 -0.002,0.132 0.05,0.22 0.158,0.262 z" /></g><g
         transform="translate(44.646,209.6072)"
         id="g224"><path
           inkscape:connector-curvature="0"
           id="path226"
           style="fill:#008940;fill-opacity:1;fill-rule:evenodd;stroke:none"
           d="M 0,0 0.353,0.074 C 0.299,0.321 0.313,0.492 0.394,0.589 0.475,0.685 0.623,0.752 0.839,0.79 l 9.209,1.958 c 2.118,0.481 3.438,1.51 3.961,3.085 0.522,1.578 0.508,3.573 -0.044,5.984 -0.478,2.431 -1.276,4.259 -2.395,5.487 -1.118,1.227 -2.743,1.63 -4.874,1.208 l -9.208,-1.957 c -0.214,-0.052 -0.377,-0.05 -0.49,0.006 -0.112,0.053 -0.19,0.186 -0.234,0.397 l -0.353,-0.074 0.881,-4.143 0.353,0.074 c -0.044,0.201 -0.026,0.346 0.056,0.438 0.081,0.094 0.231,0.161 0.445,0.202 l 9.311,1.98 c 1.115,0.236 1.983,0.006 2.603,-0.691 0.62,-0.698 1.091,-1.849 1.416,-3.455 C 11.833,9.69 11.87,8.447 11.588,7.558 11.306,6.667 10.606,6.104 9.49,5.869 L 0.181,3.89 C -0.034,3.841 -0.196,3.839 -0.308,3.886 -0.419,3.932 -0.492,4.042 -0.527,4.218 L -0.881,4.143 Z" /></g><g
         transform="translate(49.291,243.4265)"
         id="g228"><path
           inkscape:connector-curvature="0"
           id="path230"
           style="fill:#008940;fill-opacity:1;fill-rule:evenodd;stroke:none"
           d="M 0,0 4.782,3.31 C 5.007,3.469 5.231,3.63 5.456,3.793 5.682,3.955 5.868,4.044 6.018,4.06 6.081,4.057 6.124,4.032 6.146,3.987 6.168,3.941 6.178,3.897 6.178,3.854 L 6.538,3.86 6.455,8.588 6.095,8.582 C 6.095,8.386 6.04,8.206 5.932,8.04 5.823,7.875 5.685,7.731 5.514,7.61 L -0.062,3.563 C -0.233,4.893 -0.722,5.948 -1.526,6.73 -2.331,7.513 -3.342,7.903 -4.556,7.902 -6.327,7.856 -7.57,7.183 -8.285,5.881 -9,4.58 -9.324,2.739 -9.26,0.358 l 0.155,-8.837 0.36,0.007 c -0.007,0.227 0.036,0.377 0.129,0.451 0.093,0.073 0.255,0.108 0.486,0.106 l 13.884,0.242 c 0.231,0.011 0.394,-0.019 0.49,-0.089 0.095,-0.069 0.144,-0.218 0.144,-0.446 L 6.749,-8.202 6.676,-4.02 6.315,-4.025 C 6.321,-4.216 6.278,-4.343 6.186,-4.408 6.092,-4.474 5.93,-4.505 5.699,-4.505 L 0.081,-4.603 Z m -6.626,-4.72 -0.105,6.033 c -0.02,1.097 0.135,1.936 0.466,2.519 0.331,0.582 0.841,0.881 1.53,0.897 0.69,0.036 1.217,-0.15 1.581,-0.557 0.363,-0.406 0.555,-1.171 0.577,-2.292 l 0.113,-6.527 z" /></g><g
         transform="translate(44.1191,267.0437)"
         id="g232"><path
           inkscape:connector-curvature="0"
           id="path234"
           style="fill:#008940;fill-opacity:1;fill-rule:evenodd;stroke:none"
           d="M 0,0 C 0.343,2.005 1.112,3.531 2.308,4.578 3.504,5.625 4.944,6.031 6.632,5.795 8.309,5.498 9.554,4.667 10.367,3.301 11.181,1.936 11.441,0.247 11.148,-1.766 10.805,-3.771 10.035,-5.297 8.84,-6.344 7.645,-7.391 6.203,-7.797 4.517,-7.562 2.839,-7.264 1.594,-6.433 0.78,-5.067 -0.033,-3.702 -0.293,-2.013 0,0 m -2.514,0.398 c -0.286,-1.909 -0.189,-3.641 0.29,-5.198 0.481,-1.556 1.263,-2.838 2.348,-3.844 1.085,-1.005 2.392,-1.636 3.921,-1.893 1.533,-0.229 2.972,-0.032 4.314,0.59 1.342,0.621 2.483,1.597 3.42,2.929 0.938,1.332 1.565,2.951 1.882,4.854 0.286,1.909 0.19,3.642 -0.29,5.198 C 12.892,4.591 12.108,5.872 11.023,6.877 9.938,7.883 8.632,8.515 7.103,8.771 5.569,9 4.132,8.803 2.789,8.182 1.446,7.561 0.307,6.584 -0.631,5.252 -1.568,3.92 -2.196,2.302 -2.514,0.398" /></g><g
         transform="translate(49.1572,286.3947)"
         id="g236"><path
           inkscape:connector-curvature="0"
           id="path238"
           style="fill:#008940;fill-opacity:1;fill-rule:evenodd;stroke:none"
           d="M 0,0 1.973,5.73 C 2.285,6.678 2.647,7.289 3.062,7.563 3.475,7.836 4.048,7.838 4.78,7.569 5.523,7.331 5.974,6.976 6.131,6.506 6.288,6.036 6.198,5.331 5.86,4.392 L 3.888,-1.339 Z M 8.479,4.178 C 9.062,5.949 9.089,7.349 8.562,8.379 8.033,9.408 7.134,10.131 5.861,10.548 4.342,11.063 3.075,11.008 2.064,10.382 1.054,9.756 0.269,8.621 -0.289,6.977 l -3.318,-9.637 0.341,-0.117 c 0.067,0.205 0.157,0.324 0.268,0.358 0.111,0.034 0.275,0.011 0.491,-0.069 L 10.624,-7.01 c 0.22,-0.069 0.363,-0.152 0.431,-0.247 0.066,-0.097 0.063,-0.245 -0.01,-0.447 l 0.341,-0.118 1.362,3.955 -0.342,0.118 c -0.062,-0.193 -0.149,-0.305 -0.26,-0.337 -0.111,-0.032 -0.274,-0.008 -0.491,0.072 l -5.362,1.847 z" /></g><g
         transform="translate(75.396,310.114)"
         id="g240"><path
           inkscape:connector-curvature="0"
           id="path242"
           style="fill:#008940;fill-opacity:1;fill-rule:evenodd;stroke:none"
           d="M 0,0 -2.817,1.562 -2.992,1.246 C -2.889,1.19 -2.839,1.094 -2.845,0.956 -2.849,0.818 -2.914,0.637 -3.039,0.41 l -5.157,-9.304 -3.687,2.044 3.291,5.938 c 0.13,0.223 0.257,0.366 0.38,0.429 0.123,0.063 0.221,0.074 0.292,0.031 l 0.175,0.316 -2.862,1.587 -0.175,-0.316 c 0.103,-0.055 0.155,-0.148 0.153,-0.279 -0.001,-0.13 -0.063,-0.309 -0.188,-0.535 l -3.291,-5.937 -3.505,1.943 5.068,9.144 c 0.134,0.235 0.269,0.383 0.401,0.443 0.134,0.06 0.259,0.057 0.374,-0.011 l 0.175,0.316 -2.908,1.612 -0.175,-0.316 c 0.083,-0.042 0.12,-0.129 0.113,-0.259 -0.007,-0.131 -0.076,-0.315 -0.206,-0.552 l -6.831,-12.324 0.316,-0.175 c 0.089,0.168 0.19,0.256 0.304,0.266 0.113,0.008 0.269,-0.043 0.468,-0.159 l 12.146,-6.733 c 0.205,-0.107 0.333,-0.212 0.385,-0.313 0.05,-0.101 0.029,-0.234 -0.066,-0.399 l 0.316,-0.175 6.92,12.485 c 0.124,0.227 0.236,0.383 0.336,0.467 0.101,0.084 0.202,0.098 0.302,0.041 z" /></g><g
         transform="translate(78.5752,325.5598)"
         id="g244"><path
           inkscape:connector-curvature="0"
           id="path246"
           style="fill:#008940;fill-opacity:1;fill-rule:evenodd;stroke:none"
           d="m 0,0 -3.271,-4.04 -2.83,5.602 z m 0.646,-10.022 -0.281,0.227 c -0.09,-0.112 -0.18,-0.18 -0.272,-0.202 -0.092,-0.022 -0.189,0.007 -0.289,0.088 -0.038,0.022 -0.098,0.109 -0.181,0.262 -0.082,0.151 -0.246,0.463 -0.489,0.935 -0.244,0.472 -0.627,1.199 -1.148,2.182 l 4.711,5.818 C 3.818,-1.005 4.64,-1.217 5.162,-1.347 5.685,-1.477 6.029,-1.567 6.195,-1.617 6.362,-1.668 6.473,-1.72 6.526,-1.772 6.596,-1.83 6.629,-1.896 6.623,-1.968 6.618,-2.041 6.582,-2.118 6.516,-2.199 l 0.28,-0.227 2.667,3.293 -0.28,0.227 C 9.11,1.005 8.991,0.961 8.826,0.964 8.661,0.967 8.441,1.006 8.167,1.08 L -6.269,4.741 c -0.124,0.03 -0.235,0.054 -0.335,0.072 -0.1,0.018 -0.185,0.053 -0.256,0.107 -0.06,0.052 -0.088,0.117 -0.085,0.194 0.003,0.077 0.029,0.148 0.079,0.212 l -0.28,0.227 -2.864,-3.535 0.281,-0.227 c 0.054,0.059 0.12,0.092 0.198,0.099 0.078,0.006 0.139,-0.007 0.184,-0.041 0.079,-0.067 0.143,-0.145 0.191,-0.234 0.049,-0.089 0.095,-0.178 0.139,-0.267 l 6.468,-12.797 c 0.198,-0.359 0.347,-0.644 0.445,-0.858 0.097,-0.214 0.075,-0.42 -0.067,-0.619 l 0.28,-0.227 z" /></g><g
         transform="translate(85.439,340.1579)"
         id="g248"><path
           inkscape:connector-curvature="0"
           id="path250"
           style="fill:#008940;fill-opacity:1;fill-rule:evenodd;stroke:none"
           d="m 0,0 14.374,-1.756 c 0.196,-0.024 0.366,-0.048 0.511,-0.072 0.145,-0.025 0.24,-0.061 0.286,-0.109 0.05,-0.061 0.067,-0.128 0.052,-0.203 -0.016,-0.073 -0.064,-0.145 -0.144,-0.213 l 0.233,-0.276 3.004,2.521 -0.232,0.276 C 17.959,0.059 17.841,0.02 17.73,0.05 17.619,0.08 17.491,0.184 17.345,0.362 L 8.418,11 c -0.15,0.175 -0.23,0.32 -0.241,0.435 -0.011,0.114 0.049,0.223 0.178,0.328 L 8.123,12.039 5.357,9.718 5.589,9.441 C 5.705,9.543 5.817,9.578 5.926,9.546 6.035,9.514 6.163,9.409 6.31,9.231 l 6.502,-7.75 -13.575,1.612 c -0.155,0.016 -0.289,0.027 -0.4,0.033 -0.112,0.005 -0.202,0.045 -0.27,0.118 -0.056,0.069 -0.078,0.132 -0.064,0.188 0.014,0.056 0.052,0.109 0.113,0.159 l -0.231,0.276 -3.384,-2.84 0.231,-0.276 c 0.117,0.102 0.229,0.137 0.337,0.104 0.11,-0.031 0.237,-0.136 0.383,-0.314 l 8.927,-10.638 c 0.15,-0.175 0.231,-0.32 0.244,-0.432 0.013,-0.113 -0.042,-0.217 -0.161,-0.314 l 0.231,-0.276 2.706,2.271 -0.231,0.276 C 7.571,-8.657 7.471,-8.683 7.366,-8.647 7.262,-8.612 7.136,-8.505 6.987,-8.328 Z" /></g><g
         transform="translate(121.3989,368.1408)"
         id="g252"><path
           inkscape:connector-curvature="0"
           id="path254"
           style="fill:#008940;fill-opacity:1;fill-rule:evenodd;stroke:none"
           d="m 0,0 0.152,-0.327 c 0.098,0.046 0.194,0.068 0.286,0.065 0.092,-0.003 0.16,-0.045 0.202,-0.125 0.041,-0.134 0.069,-0.582 0.085,-1.344 0.015,-0.763 0.034,-1.603 0.053,-2.522 l 0.224,-8.475 -6.443,5.575 c -0.955,0.811 -1.678,1.419 -2.17,1.824 -0.493,0.407 -0.759,0.647 -0.796,0.724 -0.036,0.083 -0.029,0.159 0.024,0.23 0.053,0.071 0.134,0.131 0.242,0.181 l -0.152,0.327 -4.053,-1.889 0.153,-0.327 c 0.255,0.104 0.466,0.102 0.634,-0.006 0.167,-0.109 0.318,-0.225 0.45,-0.35 l 11.288,-9.629 c 0.096,-0.077 0.193,-0.16 0.288,-0.249 0.096,-0.089 0.154,-0.154 0.177,-0.194 0.032,-0.06 0.038,-0.122 0.019,-0.188 -0.018,-0.066 -0.091,-0.129 -0.216,-0.191 l 0.153,-0.326 3.863,1.801 -0.152,0.327 c -0.134,-0.049 -0.241,-0.069 -0.32,-0.059 -0.079,0.009 -0.135,0.049 -0.167,0.119 -0.036,0.079 -0.056,0.164 -0.061,0.255 -0.005,0.09 -0.011,0.204 -0.016,0.34 L 3.356,0.306 C 3.346,0.55 3.375,0.769 3.445,0.961 3.516,1.154 3.628,1.288 3.78,1.365 L 3.628,1.692 Z" /></g><g
         transform="translate(150.0669,360.3308)"
         id="g256"><path
           inkscape:connector-curvature="0"
           id="path258"
           style="fill:#008940;fill-opacity:1;fill-rule:evenodd;stroke:none"
           d="M 0,0 -0.834,3.111 -1.182,3.018 C -1.15,2.904 -1.186,2.802 -1.288,2.71 -1.391,2.618 -1.566,2.538 -1.816,2.471 l -10.275,-2.753 -1.091,4.071 6.558,1.757 c 0.25,0.061 0.441,0.07 0.572,0.025 0.131,-0.044 0.206,-0.107 0.226,-0.188 L -5.479,5.476 -6.325,8.638 -6.674,8.544 C -6.642,8.432 -6.672,8.33 -6.768,8.24 -6.862,8.15 -7.034,8.071 -7.283,8.004 l -6.558,-1.757 -1.037,3.871 10.099,2.706 c 0.262,0.067 0.461,0.072 0.597,0.019 0.137,-0.055 0.221,-0.147 0.252,-0.276 l 0.349,0.093 -0.86,3.212 -0.349,-0.094 c 0.026,-0.089 -0.01,-0.175 -0.108,-0.261 -0.099,-0.085 -0.279,-0.163 -0.54,-0.235 l -13.611,-3.647 0.093,-0.349 c 0.183,0.052 0.317,0.041 0.403,-0.033 0.085,-0.075 0.156,-0.225 0.211,-0.448 l 3.594,-13.414 c 0.064,-0.222 0.078,-0.387 0.042,-0.494 -0.037,-0.108 -0.148,-0.184 -0.332,-0.23 l 0.093,-0.349 13.788,3.695 c 0.249,0.068 0.439,0.095 0.57,0.082 0.13,-0.014 0.21,-0.077 0.238,-0.189 z" /></g><g
         transform="translate(167.2051,365.9377)"
         id="g260"><path
           inkscape:connector-curvature="0"
           id="path262"
           style="fill:#008940;fill-opacity:1;fill-rule:evenodd;stroke:none"
           d="m 0,0 c -0.302,-0.25 -0.872,-0.518 -1.713,-0.803 -0.84,-0.284 -1.744,-0.477 -2.711,-0.576 -1.982,-0.174 -3.639,0.152 -4.972,0.978 -1.333,0.826 -2.102,2.175 -2.306,4.049 -0.089,1.205 0.126,2.251 0.644,3.138 0.518,0.887 1.243,1.591 2.173,2.112 0.931,0.52 1.97,0.832 3.117,0.935 1.112,0.08 2.076,0.025 2.894,-0.165 C -2.057,9.479 -1.422,9.256 -0.97,9 -0.518,8.744 -0.283,8.556 -0.269,8.435 -0.262,8.346 -0.261,8.278 -0.267,8.23 -0.273,8.182 -0.282,8.145 -0.293,8.12 L 0.03,7.965 1.592,11.596 1.189,11.717 C 1.093,11.626 0.993,11.574 0.89,11.561 c -0.096,0 -0.32,0.055 -0.67,0.166 -0.351,0.111 -0.795,0.232 -1.333,0.363 -0.56,0.141 -1.234,0.244 -2.023,0.313 -0.789,0.068 -1.688,0.06 -2.699,-0.021 -1.798,-0.161 -3.39,-0.618 -4.773,-1.371 -1.384,-0.754 -2.447,-1.773 -3.187,-3.059 -0.74,-1.286 -1.043,-2.808 -0.908,-4.567 0.179,-1.852 0.727,-3.346 1.646,-4.481 0.918,-1.134 2.106,-1.934 3.563,-2.398 1.458,-0.464 3.084,-0.616 4.881,-0.457 1.606,0.146 3.098,0.494 4.474,1.043 1.376,0.55 2.549,1.261 3.518,2.133 L 3.348,-0.413 C 3.24,-0.374 3.162,-0.32 3.111,-0.253 3.061,-0.187 3.03,-0.083 3.02,0.055 L 2.641,4.381 c -0.019,0.202 -0.01,0.344 0.027,0.43 0.037,0.085 0.105,0.148 0.205,0.19 L 2.842,5.363 -4.28,4.74 C -4.49,4.725 -4.658,4.75 -4.783,4.814 -4.908,4.878 -4.977,4.963 -4.988,5.07 l -0.36,-0.031 0.297,-3.391 0.36,0.031 c -0.008,0.111 0.044,0.22 0.154,0.327 0.109,0.108 0.269,0.174 0.478,0.199 l 3.836,0.336 z" /></g><g
         transform="translate(190.6611,361.4045)"
         id="g264"><path
           inkscape:connector-curvature="0"
           id="path266"
           style="fill:#008940;fill-opacity:1;fill-rule:evenodd;stroke:none"
           d="M 0,0 0.28,3.208 -0.079,3.24 C -0.088,3.123 -0.156,3.039 -0.284,2.987 -0.411,2.936 -0.604,2.921 -0.862,2.943 l -10.597,0.928 0.368,4.198 6.763,-0.591 C -4.071,7.45 -3.89,7.393 -3.782,7.306 -3.674,7.219 -3.625,7.134 -3.634,7.051 l 0.36,-0.031 0.285,3.261 -0.361,0.031 c -0.007,-0.117 -0.071,-0.202 -0.191,-0.254 -0.12,-0.052 -0.31,-0.067 -0.565,-0.045 l -6.763,0.591 0.348,3.992 10.417,-0.911 C 0.164,13.658 0.354,13.596 0.463,13.499 0.572,13.401 0.62,13.286 0.604,13.153 l 0.361,-0.031 0.29,3.312 -0.359,0.031 C 0.89,16.373 0.826,16.303 0.704,16.257 0.582,16.21 0.387,16.198 0.117,16.22 l -14.038,1.229 -0.031,-0.36 c 0.189,-0.013 0.31,-0.069 0.366,-0.169 0.055,-0.099 0.069,-0.264 0.045,-0.493 l -1.21,-13.835 c -0.017,-0.23 -0.06,-0.389 -0.13,-0.477 -0.071,-0.089 -0.202,-0.123 -0.39,-0.103 l -0.033,-0.36 14.22,-1.244 c 0.259,-0.021 0.446,-0.06 0.563,-0.118 0.12,-0.058 0.171,-0.144 0.162,-0.258 z" /></g><g
         transform="translate(203.8672,359.1355)"
         id="g268"><path
           inkscape:connector-curvature="0"
           id="path270"
           style="fill:#008940;fill-opacity:1;fill-rule:evenodd;stroke:none"
           d="m 0,0 c -0.21,0.049 -0.341,0.128 -0.394,0.238 -0.049,0.111 -0.045,0.277 0.015,0.499 L 2.604,12.698 7.602,11.452 C 7.853,11.393 8.027,11.329 8.13,11.26 8.23,11.191 8.266,11.096 8.231,10.973 L 8.582,10.886 9.35,13.96 8.999,14.048 C 8.974,13.936 8.898,13.87 8.775,13.854 8.652,13.834 8.467,13.857 8.217,13.921 L -4.854,17.18 c -0.25,0.061 -0.425,0.128 -0.525,0.202 -0.1,0.073 -0.137,0.166 -0.105,0.277 l -0.35,0.087 -0.769,-3.074 0.352,-0.088 c 0.027,0.124 0.104,0.192 0.226,0.206 0.121,0.013 0.306,-0.014 0.556,-0.079 L -0.471,13.465 -3.453,1.504 C -3.503,1.279 -3.573,1.129 -3.662,1.054 -3.752,0.979 -3.901,0.969 -4.109,1.024 l -0.087,-0.35 4.109,-1.025 z" /></g><g
         transform="translate(223.8516,359.0905)"
         id="g272"><path
           inkscape:connector-curvature="0"
           id="path274"
           style="fill:#008940;fill-opacity:1;fill-rule:evenodd;stroke:none"
           d="M 0,0 -4.819,1.948 -0.29,6.29 Z m -9.396,-3.547 0.136,0.334 c -0.134,0.053 -0.223,0.12 -0.272,0.202 -0.048,0.081 -0.048,0.182 0,0.302 0.01,0.042 0.075,0.125 0.196,0.249 0.121,0.123 0.371,0.37 0.751,0.742 0.381,0.371 0.965,0.949 1.751,1.735 L 0.107,-2.788 C 0.155,-3.945 0.193,-4.793 0.223,-5.33 0.25,-5.868 0.265,-6.224 0.266,-6.397 0.267,-6.572 0.248,-6.692 0.214,-6.76 0.179,-6.843 0.125,-6.893 0.056,-6.909 -0.017,-6.926 -0.101,-6.914 -0.196,-6.874 l -0.137,-0.334 3.93,-1.588 0.134,0.335 C 3.625,-8.418 3.55,-8.317 3.504,-8.159 3.457,-8 3.431,-7.778 3.422,-7.494 L 2.701,7.381 C 2.693,7.508 2.685,7.622 2.673,7.723 2.66,7.823 2.67,7.915 2.699,7.999 2.731,8.071 2.785,8.117 2.86,8.137 2.936,8.157 3.011,8.152 3.087,8.123 L 3.222,8.458 -0.996,10.162 -1.132,9.827 C -1.06,9.793 -1.009,9.74 -0.979,9.667 -0.949,9.595 -0.944,9.532 -0.965,9.479 -1.006,9.384 -1.062,9.3 -1.133,9.228 -1.202,9.155 -1.274,9.085 -1.348,9.017 L -11.693,-0.91 c -0.286,-0.295 -0.516,-0.52 -0.692,-0.675 -0.175,-0.156 -0.379,-0.195 -0.61,-0.118 l -0.136,-0.335 z" /></g><g
         transform="translate(241.1611,349.4387)"
         id="g276"><path
           inkscape:connector-curvature="0"
           id="path278"
           style="fill:#008940;fill-opacity:1;fill-rule:evenodd;stroke:none"
           d="M 0,0 0.069,-5.814 C 0.076,-6.09 0.084,-6.366 0.093,-6.644 0.102,-6.921 0.071,-7.126 0,-7.258 -0.038,-7.31 -0.082,-7.331 -0.132,-7.324 c -0.051,0.008 -0.094,0.023 -0.128,0.048 l -0.196,-0.302 3.966,-2.576 0.197,0.302 c -0.163,0.111 -0.282,0.256 -0.358,0.439 -0.078,0.182 -0.12,0.378 -0.122,0.587 L 2.988,-1.94 c 1.199,-0.602 2.347,-0.788 3.446,-0.558 1.098,0.23 1.986,0.849 2.665,1.856 0.952,1.495 1.089,2.902 0.41,4.222 C 8.829,4.9 7.485,6.199 5.476,7.477 l -7.414,4.814 -0.196,-0.303 c 0.193,-0.121 0.293,-0.241 0.302,-0.359 0.009,-0.118 -0.053,-0.272 -0.185,-0.462 L -9.579,-0.479 c -0.12,-0.197 -0.236,-0.316 -0.348,-0.356 -0.111,-0.04 -0.261,0.003 -0.45,0.13 l -0.196,-0.303 3.508,-2.278 0.196,0.303 c -0.161,0.1 -0.242,0.208 -0.244,0.321 -0.002,0.114 0.061,0.266 0.191,0.457 l 3.061,4.713 z M -0.208,8.133 4.853,4.847 C 5.771,4.25 6.382,3.651 6.68,3.052 6.978,2.452 6.939,1.861 6.567,1.281 6.211,0.689 5.763,0.356 5.223,0.282 4.682,0.209 3.94,0.477 3,1.086 l -5.477,3.556 z" /></g><g
         transform="translate(260.0713,345.4636)"
         id="g280"><path
           inkscape:connector-curvature="0"
           id="path282"
           style="fill:#008940;fill-opacity:1;fill-rule:evenodd;stroke:none"
           d="M 0,0 C 0.144,0.182 0.277,0.28 0.405,0.296 0.532,0.313 0.697,0.234 0.898,0.061 L 1.132,0.337 -2.353,3.259 -2.583,2.983 C -2.34,2.783 -2.214,2.618 -2.205,2.488 -2.197,2.357 -2.271,2.207 -2.428,2.037 l -8.926,-10.638 c -0.14,-0.183 -0.275,-0.282 -0.406,-0.296 -0.13,-0.014 -0.313,0.082 -0.553,0.286 l -0.231,-0.276 3.482,-2.923 0.233,0.276 c -0.206,0.169 -0.313,0.317 -0.318,0.445 -0.006,0.129 0.067,0.279 0.22,0.451 z" /></g><g
         transform="translate(266.2852,328.0857)"
         id="g284"><path
           inkscape:connector-curvature="0"
           id="path286"
           style="fill:#008940;fill-opacity:1;fill-rule:evenodd;stroke:none"
           d="m 0,0 -3.546,3.802 5.941,2.021 z m -10.016,0.756 0.265,0.246 c -0.1,0.104 -0.152,0.203 -0.161,0.297 -0.01,0.095 0.032,0.186 0.127,0.274 0.027,0.034 0.121,0.082 0.283,0.143 0.162,0.06 0.494,0.179 0.995,0.354 0.501,0.176 1.275,0.454 2.32,0.833 l 5.106,-5.475 C -1.527,-3.642 -1.852,-4.426 -2.053,-4.925 -2.254,-5.424 -2.393,-5.752 -2.465,-5.91 -2.537,-6.068 -2.604,-6.17 -2.664,-6.216 -2.73,-6.277 -2.8,-6.3 -2.871,-6.285 c -0.071,0.015 -0.143,0.061 -0.214,0.139 l -0.265,-0.247 2.891,-3.099 0.264,0.246 c -0.078,0.084 -0.105,0.208 -0.078,0.371 0.025,0.163 0.093,0.375 0.206,0.637 L 5.566,5.547 C 5.613,5.666 5.652,5.773 5.685,5.869 5.716,5.966 5.764,6.045 5.826,6.108 5.887,6.16 5.954,6.179 6.03,6.166 6.105,6.152 6.173,6.116 6.229,6.058 L 6.493,6.304 3.391,9.63 3.127,9.385 C 3.178,9.323 3.202,9.253 3.197,9.175 3.192,9.097 3.171,9.038 3.132,8.998 3.054,8.93 2.968,8.877 2.873,8.841 2.777,8.806 2.684,8.772 2.589,8.741 L -10.983,4.117 c -0.382,-0.146 -0.686,-0.253 -0.913,-0.32 -0.223,-0.068 -0.424,-0.017 -0.602,0.151 l -0.265,-0.245 z" /></g><g
         transform="translate(279.8633,319.3127)"
         id="g288"><path
           inkscape:connector-curvature="0"
           id="path290"
           style="fill:#008940;fill-opacity:1;fill-rule:evenodd;stroke:none"
           d="m 0,0 -3.739,-13.991 c -0.051,-0.19 -0.099,-0.355 -0.143,-0.495 -0.044,-0.14 -0.095,-0.229 -0.146,-0.268 -0.07,-0.041 -0.138,-0.049 -0.209,-0.023 -0.072,0.026 -0.135,0.083 -0.193,0.172 l -0.304,-0.191 2.079,-3.328 0.304,0.192 c -0.089,0.14 -0.113,0.262 -0.067,0.367 0.045,0.106 0.166,0.219 0.362,0.338 l 11.778,7.359 c 0.194,0.125 0.348,0.184 0.464,0.179 0.114,-0.006 0.213,-0.08 0.298,-0.223 L 10.792,-9.72 8.878,-6.658 8.571,-6.849 C 8.655,-6.978 8.675,-7.094 8.629,-7.198 8.582,-7.301 8.46,-7.413 8.264,-7.533 L -0.315,-12.894 3.17,0.325 C 3.207,0.476 3.235,0.607 3.258,0.717 3.278,0.827 3.33,0.911 3.412,0.967 3.487,1.013 3.554,1.026 3.606,1.004 3.661,0.983 3.708,0.938 3.748,0.87 L 4.055,1.061 1.714,4.807 1.406,4.616 C 1.492,4.487 1.511,4.372 1.464,4.268 1.417,4.165 1.296,4.053 1.099,3.933 l -11.778,-7.359 c -0.193,-0.124 -0.347,-0.185 -0.462,-0.181 -0.112,0.003 -0.209,0.07 -0.288,0.203 l -0.304,-0.191 1.872,-2.996 0.304,0.191 c -0.07,0.108 -0.082,0.211 -0.031,0.309 0.05,0.099 0.173,0.209 0.368,0.33 z" /></g><g
         transform="translate(299.085,291.2605)"
         id="g292"><path
           inkscape:connector-curvature="0"
           id="path294"
           style="fill:#008940;fill-opacity:1;fill-rule:evenodd;stroke:none"
           d="m 0,0 -0.345,-0.104 c 0.075,-0.242 0.076,-0.414 0.004,-0.517 -0.072,-0.102 -0.215,-0.182 -0.427,-0.239 l -9.003,-2.752 c -2.067,-0.664 -3.292,-1.804 -3.676,-3.42 -0.383,-1.616 -0.195,-3.602 0.565,-5.958 0.688,-2.378 1.642,-4.13 2.863,-5.255 1.221,-1.126 2.875,-1.386 4.96,-0.779 l 9.003,2.753 c 0.209,0.067 0.371,0.08 0.489,0.036 0.117,-0.044 0.207,-0.17 0.268,-0.377 l 0.345,0.105 -1.238,4.05 -0.345,-0.105 c 0.061,-0.195 0.056,-0.341 -0.019,-0.441 -0.073,-0.1 -0.215,-0.179 -0.425,-0.239 l -9.103,-2.783 c -1.091,-0.334 -1.975,-0.181 -2.653,0.461 -0.678,0.641 -1.248,1.747 -1.711,3.318 -0.495,1.561 -0.641,2.797 -0.437,3.708 0.203,0.911 0.851,1.533 1.942,1.865 l 9.102,2.783 c 0.209,0.067 0.371,0.082 0.487,0.046 0.114,-0.036 0.196,-0.14 0.247,-0.311 l 0.344,0.105 z" /></g><g
         transform="translate(301.9551,262.4519)"
         id="g296"><path
           inkscape:connector-curvature="0"
           id="path298"
           style="fill:#008940;fill-opacity:1;fill-rule:evenodd;stroke:none"
           d="m 0,0 -9.684,-10.768 c -0.131,-0.147 -0.249,-0.272 -0.351,-0.377 -0.104,-0.105 -0.188,-0.162 -0.253,-0.172 -0.079,-0.006 -0.145,0.019 -0.196,0.074 -0.051,0.056 -0.082,0.136 -0.092,0.241 l -0.361,-0.032 0.343,-3.908 0.36,0.031 c -0.018,0.165 0.017,0.285 0.105,0.359 0.088,0.073 0.247,0.118 0.478,0.136 l 13.834,1.21 c 0.229,0.023 0.394,0.006 0.494,-0.051 0.099,-0.057 0.155,-0.169 0.166,-0.334 l 0.359,0.031 -0.314,3.597 -0.36,-0.032 c 0.017,-0.152 -0.019,-0.264 -0.107,-0.336 -0.089,-0.07 -0.248,-0.115 -0.479,-0.132 L -6.135,-11.345 2.971,-1.15 c 0.102,0.118 0.188,0.221 0.258,0.31 0.068,0.089 0.152,0.139 0.25,0.152 0.089,0.007 0.153,-0.011 0.191,-0.055 0.038,-0.043 0.059,-0.104 0.064,-0.183 l 0.36,0.031 -0.385,4.4 L 3.35,3.474 C 3.366,3.321 3.33,3.209 3.242,3.138 3.153,3.068 2.994,3.023 2.765,3.005 L -11.07,1.795 c -0.23,-0.022 -0.394,-0.006 -0.493,0.048 -0.1,0.054 -0.155,0.158 -0.166,0.312 l -0.358,-0.031 0.308,-3.52 0.359,0.031 c -0.016,0.129 0.023,0.226 0.111,0.291 0.089,0.066 0.248,0.108 0.479,0.127 z" /></g><g
         transform="translate(305.8213,238.0818)"
         id="g300"><path
           inkscape:connector-curvature="0"
           id="path302"
           style="fill:#008940;fill-opacity:1;fill-rule:evenodd;stroke:none"
           d="m 0,0 c 0.23,-0.002 0.393,-0.047 0.482,-0.138 0.091,-0.091 0.131,-0.268 0.12,-0.534 L 0.962,-0.685 1.12,3.859 0.76,3.872 C 0.752,3.558 0.698,3.356 0.603,3.27 0.505,3.183 0.341,3.148 0.11,3.166 l -13.879,0.485 c -0.229,-0.003 -0.39,0.044 -0.482,0.137 -0.092,0.094 -0.129,0.298 -0.115,0.612 l -0.362,0.013 -0.158,-4.544 0.362,-0.013 c 0.004,0.267 0.056,0.441 0.155,0.525 0.097,0.084 0.261,0.119 0.491,0.103 z" /></g><g
         transform="translate(302.7744,222.3606)"
         id="g304"><path
           inkscape:connector-curvature="0"
           id="path306"
           style="fill:#008940;fill-opacity:1;fill-rule:evenodd;stroke:none"
           d="m 0,0 c -0.345,-2.004 -1.113,-3.53 -2.31,-4.577 -1.195,-1.048 -2.635,-1.453 -4.323,-1.218 -1.678,0.297 -2.923,1.129 -3.735,2.494 -0.815,1.365 -1.073,3.055 -0.78,5.068 0.342,2.004 1.113,3.53 2.307,4.577 1.195,1.048 2.638,1.453 4.323,1.218 C -2.841,7.265 -1.595,6.434 -0.781,5.067 0.031,3.702 0.293,2.014 0,0 M 2.514,-0.397 C 2.8,1.512 2.702,3.244 2.223,4.801 1.742,6.357 0.961,7.638 -0.124,8.644 c -1.085,1.005 -2.393,1.637 -3.922,1.893 -1.532,0.229 -2.972,0.032 -4.313,-0.589 -1.343,-0.621 -2.484,-1.597 -3.42,-2.929 -0.939,-1.332 -1.566,-2.951 -1.883,-4.855 -0.286,-1.908 -0.191,-3.641 0.291,-5.197 0.478,-1.557 1.262,-2.838 2.347,-3.844 1.085,-1.006 2.39,-1.637 3.92,-1.894 1.534,-0.228 2.971,-0.032 4.315,0.589 1.342,0.621 2.481,1.598 3.42,2.93 0.936,1.332 1.563,2.95 1.883,4.855" /></g><g
         transform="translate(296.1465,203.4031)"
         id="g308"><path
           inkscape:connector-curvature="0"
           id="path310"
           style="fill:#008940;fill-opacity:1;fill-rule:evenodd;stroke:none"
           d="m 0,0 -13.424,-5.435 c -0.182,-0.072 -0.344,-0.133 -0.481,-0.183 -0.139,-0.049 -0.241,-0.065 -0.302,-0.044 -0.074,0.028 -0.122,0.081 -0.145,0.152 -0.021,0.073 -0.014,0.157 0.023,0.257 l -0.337,0.129 -1.405,-3.662 0.336,-0.129 c 0.055,0.155 0.139,0.248 0.252,0.274 0.112,0.029 0.274,-0.002 0.489,-0.087 l 12.965,-4.975 c 0.216,-0.08 0.355,-0.168 0.421,-0.264 0.063,-0.095 0.065,-0.22 0.003,-0.372 l 0.335,-0.131 1.294,3.371 -0.336,0.129 c -0.051,-0.143 -0.132,-0.228 -0.244,-0.254 -0.11,-0.024 -0.272,0.005 -0.488,0.089 l -9.443,3.626 12.653,5.172 c 0.145,0.062 0.267,0.116 0.366,0.166 0.102,0.05 0.198,0.059 0.293,0.026 C 2.908,-2.178 2.957,-2.222 2.974,-2.276 2.987,-2.333 2.98,-2.397 2.95,-2.471 L 3.287,-2.601 4.87,1.523 4.533,1.652 C 4.48,1.509 4.399,1.424 4.289,1.398 4.18,1.374 4.017,1.403 3.803,1.488 L -9.162,6.466 c -0.217,0.08 -0.359,0.167 -0.424,0.26 -0.064,0.09 -0.067,0.209 -0.011,0.351 l -0.337,0.13 -1.264,-3.299 0.336,-0.13 c 0.044,0.122 0.119,0.194 0.227,0.212 0.11,0.021 0.271,-0.011 0.487,-0.094 z" /></g><g
         transform="translate(70.0908,179.031)"
         id="g312"><path
           inkscape:connector-curvature="0"
           id="path314"
           style="fill:#008940;fill-opacity:1;fill-rule:evenodd;stroke:none"
           d="m 0,0 c 1.957,0 3.543,-1.587 3.543,-3.544 0,-1.957 -1.586,-3.543 -3.543,-3.543 -1.957,0 -3.544,1.586 -3.544,3.543 C -3.544,-1.587 -1.957,0 0,0" /></g><g
         transform="translate(276.6592,179.1892)"
         id="g316"><path
           inkscape:connector-curvature="0"
           id="path318"
           style="fill:#008940;fill-opacity:1;fill-rule:evenodd;stroke:none"
           d="M 0,0 C 1.957,0 3.544,-1.587 3.544,-3.543 3.544,-5.5 1.957,-7.088 0,-7.088 c -1.956,0 -3.543,1.588 -3.543,3.545 C -3.543,-1.587 -1.956,0 0,0" /></g><g
         transform="translate(101.7168,152.6736)"
         id="g320"><path
           inkscape:connector-curvature="0"
           id="path322"
           style="fill:#008940;fill-opacity:1;fill-rule:evenodd;stroke:none"
           d="M 0,0 C -0.24,0.186 -0.495,0.239 -0.77,0.162 -1.028,0.089 -1.431,-0.07 -1.977,-0.312 l -12.402,-5.789 c -0.792,-0.379 -1.206,-0.589 -1.239,-0.626 -0.251,-0.272 -0.179,-0.59 0.22,-0.959 l -0.33,-0.358 -5.997,5.529 0.33,0.358 c 0.399,-0.366 0.715,-0.423 0.948,-0.17 0.137,0.148 0.385,0.648 0.742,1.5 l 4.514,10.161 c 0.648,1.497 1.028,2.442 1.141,2.842 0.119,0.407 0.031,0.749 -0.262,1.02 l 0.33,0.358 L -8.63,8.619 -8.96,8.261 C -9.443,8.706 -9.75,8.853 -9.889,8.702 -9.995,8.587 -10.134,8.326 -10.31,7.914 l -3.851,-8.88 0.014,-0.013 9.188,4.14 c 0.346,0.155 0.56,0.277 0.648,0.371 0.148,0.161 -0.002,0.445 -0.444,0.851 l 0.33,0.358 4.755,-4.383 z" /></g><g
         transform="translate(99.4521,147.5603)"
         id="g324"><path
           inkscape:connector-curvature="0"
           id="path326"
           style="fill:#008940;fill-opacity:1;fill-rule:evenodd;stroke:none"
           d="m 0,0 8.406,-5.843 -2.634,-3.79 -8.406,5.844 z" /></g><g
         transform="translate(121.1592,121.2165)"
         id="g328"><path
           inkscape:connector-curvature="0"
           id="path330"
           style="fill:#008940;fill-opacity:1;fill-rule:evenodd;stroke:none"
           d="m 0,0 -0.435,0.222 c 0.285,0.559 0.144,0.983 -0.428,1.274 l -14.733,7.485 0.22,0.434 c 0.641,-0.267 1.088,-0.154 1.342,0.344 l 6.459,12.715 c 0.247,0.486 0.075,0.917 -0.514,1.284 l 0.221,0.434 6.462,-3.282 -0.221,-0.434 c -0.646,0.258 -1.093,0.143 -1.341,-0.343 L -8.251,9.733 0.945,5.062 C 1.516,4.771 1.946,4.907 2.23,5.466 L 2.665,5.245 Z" /></g><g
         transform="translate(146.6108,114.2019)"
         id="g332"><path
           inkscape:connector-curvature="0"
           id="path334"
           style="fill:#008940;fill-opacity:1;fill-rule:evenodd;stroke:none"
           d="m 0,0 -6.114,1.787 0.137,0.468 c 0.312,-0.092 0.498,-0.033 0.558,0.175 0.04,0.133 -0.001,0.56 -0.119,1.271 l -0.256,1.602 0.003,0.011 -8.684,2.54 -0.004,-0.012 -1.424,-1.584 c -0.24,-0.279 -0.38,-0.489 -0.424,-0.638 -0.061,-0.209 0.093,-0.366 0.461,-0.474 l -0.137,-0.467 -5.583,1.632 0.137,0.468 c 0.386,-0.113 0.742,0.027 1.065,0.424 0.338,0.392 0.821,0.946 1.451,1.665 l 8.087,9.52 c 0.647,0.742 0.996,1.195 1.047,1.367 0.068,0.234 -0.055,0.394 -0.367,0.486 l 0.137,0.467 7.768,-2.271 -0.137,-0.467 C -2.71,18.061 -2.9,17.992 -2.968,17.757 -3.019,17.586 -2.969,17.106 -2.82,16.319 L -0.99,4.734 C -0.875,3.97 -0.752,3.094 -0.622,2.102 -0.489,1.121 -0.238,0.576 0.137,0.467 Z m -6.217,8.352 -0.001,-0.006 -1.221,7.298 -0.041,0.012 -5.017,-5.474 10e-4,0.006 z" /></g><g
         transform="translate(171.0449,116.4441)"
         id="g336"><path
           inkscape:connector-curvature="0"
           id="path338"
           style="fill:#008940;fill-opacity:1;fill-rule:evenodd;stroke:none"
           d="m 0,0 c -0.299,-3.203 -2.776,-4.588 -7.433,-4.153 l -11.461,1.072 0.046,0.483 c 0.382,-0.021 0.654,0.013 0.811,0.099 0.168,0.085 0.273,0.322 0.309,0.716 l 1.328,14.199 c 0.03,0.325 -0.01,0.567 -0.12,0.719 -0.109,0.151 -0.388,0.245 -0.831,0.287 l 0.045,0.484 11.749,-1.098 C -3.272,12.595 -1.71,12.126 -0.871,11.397 -0.018,10.669 0.342,9.603 0.212,8.203 0.039,6.361 -0.932,5.152 -2.705,4.581 -0.692,3.766 0.209,2.238 0,0 m -4.543,7.622 c 0.058,0.617 -0.108,1.084 -0.496,1.4 -0.387,0.331 -0.975,0.533 -1.764,0.607 l -4.628,0.432 -0.342,-3.658 4.495,-0.42 c 0.767,-0.071 1.393,-0.003 1.88,0.207 0.499,0.207 0.785,0.685 0.855,1.432 M -4.611,0.956 c 0.069,0.737 -0.101,1.293 -0.507,1.663 -0.408,0.385 -1.179,0.63 -2.318,0.735 l -4.582,0.429 -0.39,-4.175 4.132,-0.386 c 1.014,-0.094 1.859,-0.027 2.536,0.204 0.678,0.233 1.056,0.744 1.129,1.53" /></g><g
         transform="translate(194.8457,112.2878)"
         id="g340"><path
           inkscape:connector-curvature="0"
           id="path342"
           style="fill:#008940;fill-opacity:1;fill-rule:evenodd;stroke:none"
           d="m 0,0 -0.484,-0.042 c -0.185,0.396 -0.347,0.64 -0.478,0.732 -0.137,0.103 -0.444,0.135 -0.934,0.093 l -16.672,-1.435 -0.042,0.485 c 0.688,0.072 1.008,0.407 0.958,1 l -1.224,14.208 c -0.053,0.605 -0.426,0.88 -1.114,0.821 l -0.042,0.485 16.954,1.46 c 0.699,0.06 1.022,0.405 0.969,1.03 l 0.484,0.041 0.463,-5.375 -0.484,-0.042 c -0.055,0.625 -0.439,0.908 -1.151,0.847 l -10.75,-0.926 0.242,-2.817 6.736,0.581 c 0.412,0.035 0.689,0.104 0.831,0.205 0.143,0.103 0.195,0.378 0.156,0.825 l 0.486,0.042 0.457,-5.31 -0.485,-0.042 c -0.06,0.393 -0.164,0.642 -0.31,0.747 -0.149,0.101 -0.428,0.136 -0.839,0.1 l -6.736,-0.58 0.323,-3.756 10.524,0.906 c 0.702,0.061 1.106,0.412 1.215,1.051 l 0.485,0.041 z" /></g><g
         transform="translate(218.1562,118.0349)"
         id="g344"><path
           inkscape:connector-curvature="0"
           id="path346"
           style="fill:#008940;fill-opacity:1;fill-rule:evenodd;stroke:none"
           d="m 0,0 -0.472,-0.126 c -0.162,0.605 -0.55,0.829 -1.171,0.663 l -15.963,-4.273 -0.125,0.469 c 0.655,0.231 0.912,0.613 0.768,1.153 l -3.687,13.776 c -0.142,0.527 -0.557,0.732 -1.242,0.612 l -0.126,0.472 7.001,1.874 0.126,-0.472 c -0.652,-0.238 -0.908,-0.623 -0.767,-1.15 l 3.015,-11.269 9.964,2.667 c 0.618,0.166 0.849,0.555 0.687,1.161 l 0.471,0.126 z" /></g><g
         transform="translate(221.334,123.5339)"
         id="g348"><path
           inkscape:connector-curvature="0"
           id="path350"
           style="fill:#008940;fill-opacity:1;fill-rule:evenodd;stroke:none"
           d="M 0,0 C -0.327,0.786 -0.328,1.572 0,2.355 0.322,3.147 0.882,3.713 1.683,4.047 2.439,4.362 3.207,4.344 3.991,3.998 4.773,3.662 5.33,3.095 5.662,2.297 5.975,1.547 5.969,0.773 5.645,-0.02 5.333,-0.798 4.784,-1.351 4.008,-1.674 3.243,-1.993 2.463,-1.988 1.673,-1.658 0.881,-1.326 0.323,-0.773 0,0" /></g><g
         transform="translate(250.3975,134.4197)"
         id="g352"><path
           inkscape:connector-curvature="0"
           id="path354"
           style="fill:#008940;fill-opacity:1;fill-rule:evenodd;stroke:none"
           d="M 0,0 -0.42,-0.249 C -0.758,0.026 -1.01,0.175 -1.169,0.202 -1.336,0.234 -1.628,0.128 -2.05,-0.123 l -14.378,-8.562 -0.249,0.419 c 0.588,0.365 0.731,0.806 0.427,1.317 l -7.298,12.253 c -0.309,0.522 -0.765,0.607 -1.359,0.253 l -0.25,0.418 14.621,8.707 c 0.603,0.359 0.742,0.81 0.423,1.349 l 0.418,0.249 2.759,-4.634 -0.418,-0.25 c -0.321,0.538 -0.79,0.626 -1.404,0.26 l -9.27,-5.521 1.447,-2.429 5.808,3.459 c 0.354,0.211 0.575,0.396 0.658,0.546 0.085,0.157 0.011,0.427 -0.218,0.812 L -9.915,8.772 -7.188,4.193 -7.606,3.944 C -7.832,4.271 -8.033,4.45 -8.211,4.481 -8.389,4.507 -8.656,4.416 -9.011,4.205 l -5.808,-3.459 1.928,-3.239 9.077,5.404 c 0.606,0.361 0.816,0.853 0.634,1.475 l 0.418,0.249 z" /></g><g
         transform="translate(259.0479,164.7888)"
         id="g356"><path
           inkscape:connector-curvature="0"
           id="path358"
           style="fill:#008940;fill-opacity:1;fill-rule:evenodd;stroke:none"
           d="m 0,0 c -0.498,-0.483 -0.551,-0.943 -0.163,-1.375 l 5.364,-5.96 c 3.525,-3.915 3.038,-7.899 -1.461,-11.947 -4.488,-4.039 -8.478,-4.119 -11.967,-0.242 l -5.416,6.018 c -0.374,0.416 -0.835,0.408 -1.383,-0.017 l -0.326,0.362 5.386,4.848 0.326,-0.362 c -0.497,-0.482 -0.55,-0.942 -0.162,-1.374 l 6.014,-6.683 c 0.569,-0.632 1.251,-0.968 2.048,-1.003 0.795,-0.019 1.734,0.458 2.821,1.437 0.918,0.826 1.467,1.644 1.649,2.459 0.174,0.821 -0.079,1.611 -0.756,2.366 l -5.978,6.641 c -0.374,0.416 -0.835,0.408 -1.384,-0.017 l -0.326,0.362 5.388,4.849 z" /></g><g
         transform="translate(188.7607,149.7214)"
         id="g360"><path
           inkscape:connector-curvature="0"
           id="path362"
           style="fill:#008940;fill-opacity:1;fill-rule:evenodd;stroke:none"
           d="M 0,0 H 1.08 C 1.705,0 2.175,-0.125 2.5,-0.375 2.825,-0.63 3.03,-1.024 3.115,-1.56 3.261,-2.135 3.391,-2.625 3.5,-3.024 3.615,-3.425 3.745,-3.715 3.891,-3.899 H 6.34 C 6.221,-3.765 6.11,-3.515 6,-3.149 5.891,-2.79 5.766,-2.239 5.62,-1.5 5.476,-0.845 5.255,-0.319 4.971,0.075 4.686,0.471 4.306,0.735 3.83,0.886 V 1 C 4.436,1.181 4.925,1.476 5.29,1.875 5.66,2.275 5.846,2.766 5.855,3.346 5.851,3.801 5.761,4.215 5.58,4.58 5.405,4.95 5.181,5.24 4.905,5.455 4.565,5.7 4.141,5.891 3.63,6.025 3.115,6.165 2.405,6.235 1.5,6.235 0.69,6.235 -0.029,6.195 -0.66,6.125 -1.29,6.056 -1.83,5.971 -2.279,5.875 V -3.899 H 0 Z M 0.061,4.431 C 0.181,4.465 0.346,4.49 0.556,4.516 0.766,4.54 1.021,4.551 1.32,4.556 2.035,4.545 2.565,4.41 2.905,4.136 3.245,3.865 3.415,3.5 3.415,3.04 3.396,2.53 3.175,2.16 2.745,1.931 2.32,1.7 1.785,1.59 1.141,1.59 h -1.08 z m 1.5,6.604 C -1.34,10.971 -3.734,10.011 -5.635,8.16 -7.535,6.315 -8.52,3.985 -8.585,1.181 c 0.065,-2.846 1.05,-5.186 2.95,-7.026 1.901,-1.84 4.295,-2.79 7.196,-2.854 2.904,0.064 5.29,1.014 7.154,2.854 1.865,1.84 2.83,4.18 2.89,7.026 C 11.54,3.985 10.58,6.315 8.721,8.16 6.865,10.011 4.495,10.971 1.62,11.035 Z m 0,-1.984 C 3.78,8.995 5.585,8.226 6.971,6.74 8.355,5.261 9.07,3.405 9.115,1.181 9.07,-1.06 8.36,-2.92 6.98,-4.399 5.601,-5.88 3.811,-6.63 1.62,-6.66 c -2.269,0.056 -4.109,0.815 -5.524,2.285 -1.415,1.471 -2.146,3.32 -2.191,5.556 0.05,2.224 0.77,4.08 2.175,5.559 1.405,1.486 3.21,2.255 5.42,2.311 z" /></g><path
         inkscape:connector-curvature="0"
         id="path364"
         style="fill:#fff200;fill-opacity:1;fill-rule:evenodd;stroke:none"
         d="M 31.815,93.88 H 315.326 V 41.885 H 31.815 Z" /><g
         transform="translate(75.5278,83.8259)"
         id="g366"><path
           inkscape:connector-curvature="0"
           id="path368"
           style="fill:#008940;fill-opacity:1;fill-rule:evenodd;stroke:none"
           d="m 0,0 c -0.494,0 -0.987,-0.619 -1.481,-1.858 l -12.134,-28.493 c -0.537,-1.145 -0.806,-1.759 -0.806,-1.847 0,-0.542 0.312,-0.811 0.932,-0.811 v -0.714 h -13.599 v 0.714 c 0.62,0.088 0.932,0.301 0.932,0.647 0,0.218 -0.312,1.058 -0.932,2.528 l -12.441,27.976 c -0.554,1.195 -1.07,1.815 -1.541,1.858 v 0.713 h 13.434 V 0 c -0.833,-0.065 -1.25,-0.345 -1.25,-0.844 0,-0.153 0.225,-0.702 0.674,-1.656 l 8.845,-18.31 h -0.011 l 8.411,18.31 c 0.412,0.91 0.614,1.485 0.614,1.722 0,0.477 -0.296,0.735 -0.888,0.778 V 0.713 H 0 Z" /></g><g
         transform="translate(116.4341,48.5691)"
         id="g370"><path
           inkscape:connector-curvature="0"
           id="path372"
           style="fill:#008940;fill-opacity:1;fill-rule:evenodd;stroke:none"
           d="m 0,0 h -0.768 c -0.087,0.361 -0.192,0.702 -0.323,1.024 -0.126,0.34 -0.461,0.51 -0.993,0.51 h -32.79 v 0.714 c 1.245,0.088 1.864,0.598 1.864,1.541 v 29.928 c 0,0.921 -0.619,1.435 -1.864,1.54 v 0.713 h 32.79 c 0.708,0 1.146,0.509 1.316,1.536 H 0 V 26.539 h -0.768 c -0.109,0.51 -0.224,0.894 -0.356,1.15 -0.126,0.258 -0.477,0.384 -1.058,0.384 H -23.14 v -5.318 h 12.151 c 1.097,0 1.761,0.51 1.996,1.536 h 0.768 v -10.31 h -0.768 c -0.235,1.027 -0.899,1.536 -1.996,1.536 H -23.14 V 9.431 h 20.892 c 0.603,0 0.976,0.103 1.124,0.318 0.153,0.214 0.269,0.62 0.356,1.217 H 0 Z" /></g><g
         transform="translate(165.5649,54.7253)"
         id="g374"><path
           inkscape:connector-curvature="0"
           id="path376"
           style="fill:#008940;fill-opacity:1;fill-rule:evenodd;stroke:none"
           d="m 0,0 c -5.911,-3.301 -12.913,-4.95 -21.007,-4.95 -6.508,0 -11.69,1.611 -15.545,4.842 -3.855,3.251 -5.779,7.484 -5.779,12.705 0,5.279 2.012,9.529 6.037,12.736 4.03,3.208 9.289,4.81 15.775,4.81 2.462,0 4.968,-0.319 7.518,-0.955 2.572,-0.608 4.272,-1.095 5.105,-1.458 1.332,-0.548 2.133,-0.823 2.413,-0.823 0.301,0 0.586,0.165 0.866,0.494 l 0.779,-0.23 -4.321,-8.544 -0.779,0.488 c 0.11,0.214 0.165,0.412 0.165,0.582 0,0.499 -1.19,1.124 -3.565,1.88 -2.352,0.775 -5.165,1.163 -8.444,1.163 -3.591,0 -6.47,-0.949 -8.636,-2.845 -2.139,-1.881 -3.208,-4.366 -3.208,-7.457 0,-3.055 1.228,-5.485 3.69,-7.299 2.462,-1.793 5.402,-2.688 8.823,-2.688 3.252,0 6.3,0.417 9.146,1.245 v 4.24 h -8.334 c -0.647,0 -1.009,-0.422 -1.097,-1.261 h -0.768 v 9.212 h 0.768 c 0.044,-0.769 0.417,-1.153 1.124,-1.153 H 0 V 14.021 C -0.729,13.978 -1.097,13.562 -1.097,12.767 V 1.898 C -1.097,1.146 -0.729,0.774 0,0.774 Z" /></g><g
         transform="translate(212.5684,50.1033)"
         id="g378"><path
           inkscape:connector-curvature="0"
           id="path380"
           style="fill:#008940;fill-opacity:1;fill-rule:evenodd;stroke:none"
           d="m 0,0 h -12.941 v 0.714 c 0.805,0.044 1.206,0.258 1.206,0.651 0,0.126 -0.17,0.658 -0.515,1.591 l -1.7,4.563 V 7.513 h -15.31 v 0.006 l -1.706,-4.563 c -0.296,-0.889 -0.448,-1.465 -0.448,-1.722 0,-0.345 0.422,-0.52 1.255,-0.52 V 0 h -11.735 v 0.714 c 0.774,0.044 1.449,0.789 2.03,2.242 l 10.544,27.85 c 0.538,1.404 0.805,2.182 0.805,2.336 0,0.389 -0.455,0.581 -1.371,0.581 v 0.713 h 17.219 v -0.713 c -0.807,-0.11 -1.206,-0.357 -1.206,-0.745 0,-0.149 0.322,-1.059 0.965,-2.72 L -2.184,3.631 C -1.437,1.684 -0.708,0.714 0,0.714 Z m -15.684,12.776 v 0.011 l -6.228,15.447 h 0.021 l -5.723,-15.447 v -0.011 z" /></g><g
         transform="translate(261.8193,50.1033)"
         id="g382"><path
           inkscape:connector-curvature="0"
           id="path384"
           style="fill:#008940;fill-opacity:1;fill-rule:evenodd;stroke:none"
           d="m 0,0 h -12.502 v 0.714 c 1.025,0 1.535,0.247 1.535,0.746 0,0.213 -0.805,1.161 -2.412,2.845 -2.43,2.527 -8.033,8.532 -16.812,18.018 h 0.033 V 2.255 c 0,-0.943 0.62,-1.453 1.864,-1.541 V 0 h -12.557 v 0.714 c 1.245,0.088 1.865,0.598 1.865,1.541 v 29.928 c 0,0.921 -0.62,1.435 -1.865,1.54 v 0.713 h 15.902 v -0.713 c -1.244,-0.066 -1.864,-0.357 -1.864,-0.871 0,-0.281 0.861,-1.372 2.577,-3.269 L -10.67,15.068 h -0.022 v 17.115 c 0,0.921 -0.455,1.435 -1.371,1.54 v 0.713 H 0 v -0.713 c -1.244,-0.105 -1.864,-0.619 -1.864,-1.54 V 2.255 c 0,-0.576 0.11,-0.972 0.324,-1.186 C -1.326,0.872 -0.817,0.758 0,0.714 Z" /></g><g
         transform="translate(270.0674,67.196)"
         id="g386"><path
           inkscape:connector-curvature="0"
           id="path388"
           style="fill:#008940;fill-opacity:1;fill-rule:evenodd;stroke:none"
           d="m 0,0 c 0,5.598 1.963,9.94 5.884,13.021 3.936,3.1 8.986,4.651 15.134,4.651 5.888,0 10.698,-1.602 14.425,-4.81 3.751,-3.207 5.626,-7.412 5.626,-12.61 0,-5.347 -1.863,-9.634 -5.592,-12.859 -3.706,-3.207 -8.685,-4.814 -14.943,-4.814 -5.999,0 -10.928,1.541 -14.782,4.616 C 1.919,-9.723 0,-5.456 0,0 m 9.706,0.126 c 0,-2.935 1.068,-5.259 3.213,-6.971 2.144,-1.716 4.731,-2.57 7.774,-2.57 2.94,0 5.446,0.866 7.524,2.603 2.1,1.734 3.147,4.119 3.147,7.162 0,2.83 -1.068,5.088 -3.213,6.778 -2.122,1.693 -4.605,2.539 -7.458,2.539 -3.272,0 -5.932,-0.911 -7.966,-2.731 C 10.715,5.137 9.706,2.867 9.706,0.126" /></g></g></g></svg>